<?xml version="1.0" standalone="no"?>
<!DOCTYPE svg PUBLIC "-//W3C//DTD SVG 1.1//EN" "http://www.w3.org/Graphics/SVG/1.1/DTD/svg11.dtd">
<svg xmlns="http://www.w3.org/2000/svg">
<metadata>Copyright (C) 2016 by original authors @ fontello.com</metadata>
<defs>
<font id="icons" horiz-adv-x="1000" >
<font-face font-family="icons" font-weight="400" font-stretch="normal" units-per-em="1000" ascent="850" descent="-150" />
<missing-glyph horiz-adv-x="1000" />
<glyph glyph-name="check" unicode="&#xe800;" d="M932 534q0-22-15-38l-404-404-76-76q-16-15-38-15t-38 15l-76 76-202 202q-15 16-15 38t15 38l76 76q16 16 38 16t38-16l164-165 366 367q16 16 38 16t38-16l76-76q15-16 15-38z" horiz-adv-x="1000" />

<glyph glyph-name="circle" unicode="&#xe801;" d="M857 350q0-117-57-215t-156-156-215-58-216 58-155 156-58 215 58 215 155 156 216 58 215-58 156-156 57-215z" horiz-adv-x="857.1" />

<glyph glyph-name="mail" unicode="&#xe802;" d="M30 586q-32 18-28 40 2 14 26 14l846 0q38 0 20-32-8-14-24-22-14-6-192-102t-182-98q-16-10-46-10-28 0-46 10-4 2-182 98t-192 102z m850-100q20 10 20-10l0-368q0-16-17-32t-33-16l-800 0q-16 0-33 16t-17 32l0 368q0 20 20 10l384-200q18-10 46-10t46 10z" horiz-adv-x="900" />

<glyph glyph-name="search" unicode="&#xe803;" d="M528 219l172-172-70-71-180 181c-44-25-94-38-147-38-167 0-303 135-303 302s136 303 303 303 303-136 303-303c0-78-30-149-78-202z m-427 202c0-112 89-202 202-202s202 90 202 202-90 202-202 202-202-89-202-202z" horiz-adv-x="699.2" />

<glyph glyph-name="info" unicode="&#xe804;" d="M571 82v89q0 8-5 13t-12 5h-54v286q0 8-5 13t-13 5h-178q-8 0-13-5t-5-13v-89q0-8 5-13t13-5h53v-179h-53q-8 0-13-5t-5-13v-89q0-8 5-13t13-5h250q7 0 12 5t5 13z m-71 500v89q0 8-5 13t-13 5h-107q-8 0-13-5t-5-13v-89q0-8 5-13t13-5h107q8 0 13 5t5 13z m357-232q0-117-57-215t-156-156-215-58-216 58-155 156-58 215 58 215 155 156 216 58 215-58 156-156 57-215z" horiz-adv-x="857.1" />

<glyph glyph-name="attention" unicode="&#xe805;" d="M429 779q116 0 215-58t156-156 57-215-57-215-156-156-215-58-216 58-155 156-58 215 58 215 155 156 216 58z m71-696v106q0 8-5 13t-12 5h-107q-8 0-13-5t-6-13v-106q0-8 6-13t13-6h107q7 0 12 6t5 13z m-1 192l10 346q0 7-6 10-5 5-13 5h-123q-8 0-13-5-6-3-6-10l10-346q0-6 5-10t14-4h103q8 0 13 4t6 10z" horiz-adv-x="857.1" />

<glyph glyph-name="attention-triangle" unicode="&#xe806;" d="M571 83v106q0 8-5 13t-12 5h-108q-7 0-12-5t-5-13v-106q0-8 5-13t12-6h108q7 0 12 6t5 13z m-1 208l10 257q0 6-5 10-7 6-14 6h-122q-7 0-14-6-5-4-5-12l9-255q0-5 6-9t13-3h103q8 0 13 3t6 9z m-7 522l428-786q20-35-1-70-10-17-26-26t-35-10h-858q-18 0-35 10t-26 26q-21 35-1 70l429 786q9 17 26 27t36 10 36-10 27-27z" horiz-adv-x="1000" />

<glyph glyph-name="cancel" unicode="&#xe807;" d="M641 224q0 14-10 25l-101 101 101 101q10 11 10 25 0 15-10 26l-51 50q-10 11-25 11-15 0-25-11l-101-101-101 101q-11 11-26 11-15 0-25-11l-50-50q-11-11-11-26 0-14 11-25l101-101-101-101q-11-11-11-25 0-15 11-26l50-50q10-11 25-11 15 0 26 11l101 101 101-101q10-11 25-11 15 0 25 11l51 50q10 11 10 26z m216 126q0-117-57-215t-156-156-215-58-216 58-155 156-58 215 58 215 155 156 216 58 215-58 156-156 57-215z" horiz-adv-x="857.1" />

<glyph glyph-name="drop" unicode="&#xe808;" d="M488 382c-6 10-17 26-32 47-16 22-33 45-51 72-17 29-37 58-54 91-17 33-32 67-42 102-3 11-9 19-17 24s-18 7-27 6c-9 1-18-1-27-6-7-5-14-13-17-24-11-35-26-69-42-102s-35-62-53-91c-19-27-36-50-51-72-15-21-26-37-33-47-13-19-24-43-31-66-7-25-11-48-11-75 0-37 8-72 22-104 12-33 31-60 55-85 26-24 53-43 85-57s67-20 103-20c37 0 71 7 104 20 32 14 60 33 84 57s43 52 56 85c14 32 21 67 21 104 0 27-5 50-11 75-7 23-18 47-31 66z m-306-266c-18 0-34 6-46 18-13 13-20 30-20 47 0 14 4 25 11 36 2 2 4 6 8 11s10 12 13 19c5 6 9 14 13 22s8 17 10 25c2 7 6 10 11 8 6 1 10-1 11-8 3-7 6-17 11-25 4-8 9-16 13-22 5-7 10-14 14-19s5-9 7-11c7-10 11-22 11-36 0-17-8-34-20-47-12-12-29-18-47-18z" horiz-adv-x="529.3" />

<glyph glyph-name="user" unicode="&#xe809;" d="M631 185c46-25 72-68 69-112-3-28-3-29-38-33-22-2-159-4-300-4-159 0-325 2-338 4-47 13-21 100 42 140 49 32 149 80 175 86 37 8 42 30 1 104-10 16-21 66-22 119-2 84 15 141 89 169 13 5 29 7 44 7 48 0 94-27 113-67 26-54 15-194-13-245-31-59-28-76 8-86 23-6 97-42 170-82z" horiz-adv-x="699.2" />

<glyph glyph-name="file" unicode="&#xe80a;" d="M420 673l138-144c13-15 25-42 25-64v-427c0-20-16-38-37-38h-509c-19 0-37 18-37 38v626c0 19 18 37 37 37h320c22 0 49-13 63-28z m-343-608h429c7 0 13 6 13 13v357c0 7-6 13-13 13h-153c-7 0-13 6-13 12v163c0 7-5 12-12 12h-251c-7 0-12-5-12-12v-545c0-7 5-13 12-13z m399 456l-62 66c-5 5-9 3-9-4v-59c0-6 6-12 12-12h55c7 0 9 4 4 9z m-324 57h121c13 0 25-12 25-26v-14c0-13-12-25-25-25h-121c-13 0-25 12-25 25v14c0 14 12 26 25 26z m0-131h121c13 0 25-12 25-26v-14c0-13-12-25-25-25h-121c-13 0-25 12-25 25v14c0 14 12 26 25 26z m277-196h-277c-13 0-25 11-25 25v14c0 14 12 25 25 25h277c12 0 25-11 25-25v-14c0-14-13-25-25-25z m0-133h-277c-13 0-25 10-25 23v16c0 13 12 24 25 24h277c12 0 25-11 25-24v-16c0-13-13-23-25-23z" horiz-adv-x="582" />

<glyph glyph-name="suitcase" unicode="&#xe80b;" d="M900 650q42 0 71-30t29-70l0-550q0-42-29-71t-71-29l-50 0 0 750 50 0z m-900-100q0 40 30 70t70 30l50 0 0-750-50 0q-40 0-70 29t-30 71l0 550z m670 204l0-104 110 0 0-750-560 0 0 750 110 0 0 104q98 46 170 46t170-46z m-60-104l0 66q-52 24-110 24-54 0-110-24l0-66 220 0z" horiz-adv-x="1000" />

<glyph glyph-name="dot-3" unicode="&#xe80c;" d="M110 460q46 0 78-32t32-78q0-44-32-77t-78-33-78 33-32 77q0 46 32 78t78 32z m350 0q46 0 78-32t32-78q0-44-33-77t-77-33-77 33-33 77q0 46 32 78t78 32z m350 0q46 0 78-32t32-78q0-44-32-77t-78-33-78 33-32 77q0 46 32 78t78 32z" horiz-adv-x="920" />

<glyph glyph-name="facebook" unicode="&#xe80d;" d="M696 779q67 0 114-48t47-113v-536q0-66-47-113t-114-48h-104v332h111l16 130h-127v83q0 31 13 46t51 16l68 1v115q-35 5-100 5-75 0-121-45t-45-126v-95h-112v-130h112v-332h-297q-67 0-114 48t-47 113v536q0 66 47 113t114 48h535z" horiz-adv-x="857.1" />

<glyph glyph-name="user-md" unicode="&#xe80e;" d="M214 100q0-14-10-25t-25-11-26 11-10 25 10 25 26 11 25-11 10-25z m572-34q0-68-41-106t-108-39h-488q-67 0-108 39t-41 106q0 38 3 73t14 77 26 74 45 58 67 33q-12-29-12-67v-113q-32-11-52-39t-20-62q0-45 32-76t76-31 75 31 32 76q0 34-20 62t-52 39v113q0 35 14 52 74-58 165-58t164 58q14-17 14-52v-35q-59 0-101-42t-41-101v-50q-18-16-18-40 0-22 15-37t38-16 38 16 16 37q0 24-18 40v50q0 29 21 50t50 21 51-21 21-50v-50q-18-16-18-40 0-22 16-37t38-16 38 16 15 37q0 24-18 40v50q0 38-19 71t-52 52q0 6 0 24t0 27-1 23-4 26-7 22q38-8 67-33t45-58 26-74 14-77 3-73z m-179 498q0-88-63-151t-151-63-152 63-62 151 62 152 152 63 151-63 63-152z" horiz-adv-x="785.7" />

<glyph glyph-name="user-2" unicode="&#xe80f;" d="M786 66q0-67-41-106t-108-39h-488q-67 0-108 39t-41 106q0 30 2 58t8 61 15 60 24 55 34 45 48 30 62 11q5 0 24-12t41-27 60-27 75-12 74 12 61 27 41 27 24 12q34 0 62-11t48-30 34-45 24-55 15-60 8-61 2-58z m-179 498q0-88-63-151t-151-63-152 63-62 151 62 152 152 63 151-63 63-152z" horiz-adv-x="785.7" />

<glyph glyph-name="chat" unicode="&#xe810;" d="M290 240l350 0q2 0 6 2l4 0 0-92q0-40-29-70t-71-30l-250 0-150-150 0 150-50 0q-40 0-70 30t-30 70l0 300q0 42 30 71t70 29l190 0 0-310z m610 560q42 0 71-29t29-71l0-300q0-40-29-70t-71-30l-50 0 0-150-150 150-350 0 0 400q0 42 30 71t70 29l450 0z" horiz-adv-x="1000" />

<glyph glyph-name="comment" unicode="&#xe811;" d="M700 700q42 0 71-29t29-71l0-350q0-40-29-70t-71-30l-200 0 0-150-200 150-200 0q-40 0-70 30t-30 70l0 350q0 42 30 71t70 29l600 0z" horiz-adv-x="800" />

<glyph glyph-name="pencil" unicode="&#xe812;" d="M718 680q32-32 47-64t15-48l0-16-252-252-290-288-238-52 50 240 290 288 252 252q54 12 126-60z m-494-640l24 24q-2 44-52 94-22 22-45 35t-35 13l-14 2-22-24-18-80q28-16 46-34 24-24 36-48z" horiz-adv-x="780" />

<glyph glyph-name="left" unicode="&#xe813;" d="M350 546q0-7-6-12l-219-220 219-219q6-6 6-13t-6-13l-28-28q-5-5-12-5t-13 5l-260 260q-6 6-6 13t6 13l260 260q5 6 13 6t12-6l28-28q6-5 6-13z" horiz-adv-x="357.1" />

<glyph glyph-name="right" unicode="&#xe814;" d="M332 314q0-7-6-13l-260-260q-5-5-12-5t-13 5l-28 28q-6 6-6 13t6 13l219 219-219 220q-6 5-6 12t6 13l28 28q5 6 13 6t12-6l260-260q6-5 6-13z" horiz-adv-x="357.1" />

<glyph glyph-name="up" unicode="&#xe815;" d="M600 189q0-7-6-13l-28-27q-5-6-12-6t-13 6l-220 219-219-219q-5-6-13-6t-13 6l-27 27q-6 6-6 13t6 13l260 260q5 6 12 6t13-6l260-260q6-5 6-13z" horiz-adv-x="642.9" />

<glyph glyph-name="down" unicode="&#xe816;" d="M600 439q0-7-6-13l-260-260q-5-5-13-5t-12 5l-260 260q-6 6-6 13t6 13l27 28q6 6 13 6t13-6l219-219 220 219q5 6 13 6t12-6l28-28q6-5 6-13z" horiz-adv-x="642.9" />

<glyph glyph-name="home" unicode="&#xe817;" d="M888 336q16-16 11-27t-27-11l-84 0 0-310q0-14-1-21t-8-13-23-6l-204 0 0 310-204 0 0-310-194 0q-28 0-35 10t-7 30l0 310-84 0q-22 0-27 11t11 27l400 402q16 16 38 16t38-16z" horiz-adv-x="900" />

<glyph glyph-name="left-dir" unicode="&#xe818;" d="M357 600v-500q0-14-10-25t-26-11-25 11l-250 250q-10 11-10 25t10 25l250 250q11 11 25 11t26-11 10-25z" horiz-adv-x="357.1" />

<glyph glyph-name="right-dir" unicode="&#xe819;" d="M321 350q0-14-10-25l-250-250q-11-11-25-11t-25 11-11 25v500q0 15 11 25t25 11 25-11l250-250q10-10 10-25z" horiz-adv-x="357.1" />

<glyph glyph-name="down-dir" unicode="&#xe81a;" d="M571 457q0-14-10-25l-250-250q-11-11-25-11t-25 11l-250 250q-11 11-11 25t11 25 25 11h500q14 0 25-11t10-25z" horiz-adv-x="571.4" />

<glyph glyph-name="up-dir" unicode="&#xe81b;" d="M571 171q0-14-10-25t-25-10h-500q-15 0-25 10t-11 25 11 26l250 250q10 10 25 10t25-10l250-250q10-11 10-26z" horiz-adv-x="571.4" />

<glyph glyph-name="phone" unicode="&#xe81c;" d="M0 526c0-29 11-62 24-96s32-66 45-91c37-64 85-128 140-180s119-97 191-123c42-17 84-36 131-36 24 0 57 9 87 22 30 13 56 32 66 56 4 8 8 20 11 34 3 12 5 25 5 34 0 5 0 10-1 11-3 6-9 10-17 15-18 9-21 12-47 28-28 15-56 33-80 46-12 6-20 9-23 9-15 0-35-21-51-45-18-23-38-45-51-45-7 0-14 3-22 8s-15 9-20 12c-86 49-144 106-193 191-5 10-19 31-19 41 0 13 17 28 35 43 17 15 34 33 34 54 0 3-2 12-6 25-8 25-20 54-30 83-5 13-9 23-10 28-2 3-3 7-4 12s-3 8-4 12c-2 9-7 16-12 20-5 2-17 5-29 6-11 0-25 1-31 1-3 0-7 0-11-1h-12c-31-14-54-41-71-74-15-32-25-68-25-100z" horiz-adv-x="699.2" />

<glyph glyph-name="desktop" unicode="&#xe81d;" d="M58 685h584c32 0 58-25 58-58v-373c0-32-26-59-58-59h-228v-97h166c25 0 26-80 29-83h-518s0 83 29 83h166v97h-228c-33 0-58 27-58 59v373c0 33 25 58 58 58z m0-431h584v373h-584v-373z" horiz-adv-x="699.2" />

<glyph glyph-name="pin" unicode="&#xe81e;" d="M212 725c113 0 204-93 204-204 0-112-208-546-208-546s-208 434-208 546c0 111 91 204 204 204h4 4z m-4-280c51 0 93 43 93 95 0 50-42 92-93 92-52 0-94-42-94-92 0-52 42-95 94-95z" horiz-adv-x="415" />

<glyph glyph-name="arr-hw-right" unicode="&#xe81f;" d="M804 565c0 0-1-1 0-2 0-2 0-3-3-2-1 0-3 1-4 1-1 1-3 0-3-1 0-1 0-2-1-3-1-1-2 0-5 2-4 2-5 3-6 2-2-2-9-4-13-3-2 0-7 1-12 3-9 2-19 3-18 0 0-1 0-1-1 0-1 1-2 1-3-1l-2-2-5 2c-5 3-6 3-4-2 1-2 1-2-1-2-1 0-3 1-4 2-3 1-4 1-3 0 0-1-1-1-1 0-1 0-2 0-2-1 0-1-1-2-7-2-5 1-7 0-7-1 0-1 0-1-1 0-2 1-3 1-2 0 0-1-7-1-13 0-3 1-4 0-4 0 0-1 0-1-1-1 0 0-1 0-1-1 0-1-1-2-2-2-2 0-5-1-7-2-2-1-5-2-8-3-3 0-5 0-4-1 2 0 1-2-1-2-3 1-4 0-1-2 1 0 1-1 0-3-2-4-3-4-4 0-1 2-1 3-1 0-1-2-5-3-5 0 1 1 1 2 1 3 1 3-3 2-5-1-3-6-6-9-8-9-3 0-4-2-3-5 0-2 0-3-1-3-1 0 0-1 1-2 1 0 2-2 2-2 0-3-2-3-5-1-1 1-2 2-2 1 1 0 0-2-1-3 0-2-1-4-1-5 1-1 0-2-1-3-2-2-2-2 1-2 3-1 3-5 0-5-2-1-3-2-2-5 0-3 0-3 5-5 8-3 11-3 9-2-2 3-1 4 2 4 2-1 3-1 3 0 0 1-1 1-1 0-1 0-2 0-2 1 0 3 3 4 4 2 3-2 4-1 4 2 0 2 0 3 1 2 1 0 4 0 6 0 2 1 3 1 2 2-2 3 1 4 5 4 2-1 3-1 3 0-1 0 1 1 3 3 3 2 4 2 5 1 2-1 3-1 4 0 1 1 3 1 4 1 0-1 1 0 1 0 0 1 1 1 2 1 1-1 2 0 3 0 2 1 2 2 0 5-2 5-1 6 3 2 1-2 3-3 4-3 1 0 1 1-1 2-1 1-2 2-1 2 1 0 3 1 6 3 4 3 6 4 8 2 1-2 1-2 0-3-1-1-1-2 0-3 0-1 2-1 2 0-1 3 5 2 10-1 6-4 8-4 7 0 0 3 0 3 3-1 2-4 5-5 5-3 0 2 3 3 10 5 2 1 5 2 6 4l1 2 2-2c4-3 9-4 11-3 1 2 1 4 0 6-1 2-2 3-2 4 0 1 0 1 3 0 1-1 3-2 4-2 1 0 1-1-1-5 0-2-1-4-1-5 1-2 4-3 4-1 0 1-1 1-1 0-1 0-2 0-2 2 0 2 2 3 7 2 2 0 3-1 3-2-1-2-1-2 4 0 3 1 7 2 10 3 3 0 5 1 6 2 1 2 4 3 4 1 0-2 2-1 2 2 1 3 3 4 3 2 0-2 3-3 4-1 0 1 1 1 2 1 1-1 2 0 1 1 0 3 1 3 7-3 6-5 11-6 11-4 0 1-1 2-1 3-1 1-1 1 2 0 2-1 6-1 8-1 9 1 11 1 11-5 1-6 0-8-1-5-2 2-5 1-5-1 1-3 4-3 9-2 5 2 6 2 7 1 1-2 1-2 2 0 1 1 1 1 2-1 0-2 1-2 3-2 2 1 4 1 4 2 1 0-6 7-8 7-2 0-2 0-1 3 1 2 2 3 3 2 1 0 2 0 2 1 2 3 4 2 4 0 0-2 5-9 6-9 1 0 3-1 4-2 3-2 4-2 7-1 2 1 5 1 6 1 3 0 4 1 2 3-3 3-2 5 1 4 2 0 2 0 2 2 0 2-2 4-3 4-1 0-1-2-2-4-1-5-4-5-6-2 0 2-2 4-4 5-1 1-3 3-2 3 1 6 1 6 3 3 2-2 4-2 9-2 7 0 8-1 10-6 0-2 1-4 2-5 1-1 1-2 1-3-2-1-2-4 0-5 0-1 3-1 5-1 5 0 5 0 5-2-2-3-2-7 0-8 1-1 1-2-2-6-1-2-2-4-2-5 1 0 1 0 1 1 0 1 1 1 2 1 2 0 1-1-2-6-1-3-2-5-2-6 1 0 1 1 2 1 0 2 4 3 5 1 0 0 0-2-1-3-1-2-1-2-3-1-1 1-2 1-3 0-1 0 0-1 1-2l3-2-2-3c-3-5-3-5-1-4 0 0 1 1 1 2 0 1 0 1 2 0 2-1 2-1 1-4-1-4-1-4 2-2 3 2 3 2 4 0 3-3 2-11-2-20-4-7-4-8-5-6-1 2-2 2-3 2-3-1-6-6-6-13-1-4-1-5 1-5 1 0 1 1 1 3-1 1-1 3 0 4 1 3 8 6 12 6 4 0 5-3 2-5-7-5-8-6-9-10-1-4-1-5 1-7 1-2 2-3 2-4-1 0-4-1-7-1-3 0-5-1-6-2 0 0 1-1 2-1 1 0 2-1 2-2 1-1 2-1 6 2 3 1 5 2 6 2 2-2 1-4-2-6-4-3-9-8-7-6 2 1 2 1 2-1 0-1-2-5-7-9-4-4-7-7-7-8 1 0 2 0 3 1 3 2 4 1 4-1-1-1-1-4-1-6-1-3 0-3 1-3 2 1 2 1 2-1-1 0-1-2-1-2 0 0-1-1-1 0-1 0-3 0-5 0-2-1-2-1-1-3 2-1 2-1 4 0 2 1 2 1 2 0-2-4-6-10-12-16-5-6-6-7-4-8 1-1 2 0 6 3 4 4 8 5 7 3-1-1 0-2 0-2 1 0 1-4 0-4-1-1-2-1-4-2-11-1-13-2-14-3-2-2 0-5 3-5 1 0 2 0 2-2 0-3-1-6-3-6-1-1-1 0-1 1 1 2 1 2-2 0-2-2-3-4-2-4 0-1-3-4-5-4-1 0-1 0 0-1 2-2 3-2 3 0 0 3 3 5 4 3 1-1 1-1 0-3-1-2 0-1 5 1 5 3 8 6 5 8-1 1-1 1 0 3 1 3 8 7 9 7 2-1 4 6 10 23 1 4 2 5 3 5 1 0 2 1 3 1 0 1 0 1-1 1 0 0-1 1-1 2 0 1 1 1 3 1 3-1 4 2 2 5l-2 2-2-2c-2-1-3-2-4-1-1 0 1 3 5 7 4 5 6 6 8 6 2-1 2 0 3 5 0 3 3 8 5 12 5 10 7 17 6 17-1 0-1 0 0 1 2 3 1 13-1 15-2 1-2 1 0 4 1 1 2 2 2 3-1 0 0 1 0 2 1 1 3 5 3 9 1 4 3 9 4 10 1 3 1 4-2 5-1 1 0 2 1 3 3 3 4 7 4 13 0 3 0 4-2 4-1 0-2 0-1 1 0 1 0 3 0 4 0 2 1 6 2 9 2 5 3 9 2 9-1 0-2-1-3-2-3-1-3-1-3 2 0 2 0 7 0 11 0 7-1 8-2 8-1 0-1 1-1 6 1 3 1 6 2 8 0 1-1 2-11 7-6 3-12 5-12 5 0-1-3 0-5 1-5 3-7 3-7 0 1-3-1-3-1 0-1 1-2 2-3 2-2 0-3 1-3 3 0 2-1 2-1 1-1-2-4-1-4 1 0 1 0 1-1 0 0-2-2-1-4 1-2 2-5 3-5 1 0 0-1-1-1 0-1 0-2 1-2 2 0 1-6 2-7 1-2 0-1-2 1-2 4 0 5-2 2-4-2-2-4-3-4-2-1 0-1 0-1-1 0-1-11 3-13 4 0 1-1 1-2 0-2 0-2 0-2 2 0 3 0 3-2 3-3 0-3-1-2-4 2-4-2-4-8 1-4 4-5 4-6 3-1-1-3-1-7-1-4 0-5-1-5-2 0-2-7-4-12-4-3 0-2 1 3 3 2 1 5 2 6 3 2 2 2 2-2 2-10 2-16 2-18 1z m-36-135c-8-2-12-5-11-8 0-2-3-4-11-8-7-2-6-2-6 0 0 0 0 1 0 1-1 0-4-3-7-6-4-4-11-10-16-14-9-7-11-8-14-8-3 0-4-1-2-3 2-1-2-3-4-1-3 1-6 0-6-4 0-2-1-4 0-4 0 0 1 0 3 1 2 1 4 1 4 0 2-1 2-1-8-5-9-4-14-5-16-3-1 1-2 0-6-3-5-5-13-10-29-18-5-3-10-5-9-6 0-1-1-1-2-1-1 0-3-2-6-4-2-3-5-5-6-6-2-1-2-2-2-4 1-3 1-3-3-3-3-1-6-2-6-3-1 0-2-1-3-1-1 0-6-2-12-5-6-3-12-6-15-7-3-1-4-1-3-4 0-2 0-3-2-2-4 0-13-2-19-6-4-3-5-4-4-5 1-2 1-2-1-2-2 0-3 0-3-1 0-2-5-4-14-6-9-2-13-4-9-5 6-1 1-5-11-9-3-1-6-3-7-3 0-1-2-2-3-2-2 0-3 0-2-2 0-1-1-2-6-4-3-1-7-2-8-2-1 1-2 0-1 0 0-2-1-2-7-3-3-1-6-2-8-2-3-1-3-1-2-3 3-1 1-3-1-1-2 1-3 1-5 0-2-1-3 0-5 1-2 1-2 1-3-1-2-2-2-2-3-1-2 1-2 1-3-1-1-1-2-1-7-1-4 0-5-1-5-2 0-1-5-1-5 0-1 1-10-2-10-4 0-1 1-1 2 0 3 1 7 1 7 0 0-1-4-6-6-8-1-2-9-3-17-3-2-1-5-1-6-2-1-1-2-1-3 2-1 1-7-1-7-2 0 0 1-1 3-3 1-1 2-2 2-3-1-1-8-1-16 0-5 1-6 1-6 0 0-2-2-4-8-4-2-1-5-2-7-2-2-2-2-2-1-3 2-1 1-2-5-4-6-3-12-5-12-5 0 1 3 2 6 4 3 2 7 5 9 7l3 3-4-1c-1-1-7-3-13-3-11-2-19-6-14-7 3-1 1-3-4-3-4-1-6 0-6 0-1 1-2 0-3-2 0-3-1-5-1-5-1 0-3 0-7 1-5 1-6 1-12-2-9-5-15-5-30-4-13 1-22 1-25-2 0-1-1-1-2-1 0 1-1 0-3-1-2-2-2-2-7 0-3 1-6 2-7 2-2 0-1-3 1-5 1-2 1-2-1-2-1 0-4 1-6 2-5 1-6 1-6 0 1 0 0-1-1 0-1 0-2 0-2-1 0-1-2-1-7-1-4 0-8 0-10 0-1 1-2 1-1 0 0-2 0-2-3-1-2 1-2 1-2 0 2-2-13 0-20 3-2 0-2 0-1-1 0-1 0-1-2-1-1 1-2 0-2 0 0-2-25-2-29-1-3 1-3 1-1 0 2-2 1-2-1-2-2 0-3 1-3 1-1 1-2 1-2 1-1 0 0-1 1-2 1-2 1-2-1-5-3-3-5-2-5 2 0 3-1 4-3 2-1-1-2-2-3-2-2 0-2 2 0 5l2 2-2 1c-2 0-4-1-8-2-5-3-10-4-15-2-3 0-3 0-4-3-1-2-2-3-3-2-2 0-2 0 0-2 2-3 2-3 1-5-2-2-4 0-6 3-1 2-1 3-2 2 0-1-2-2-4-2-3-1-3-2-3-4 0-1-1-2-4-1l-3 0 3-2c3-3 2-6-1-5-1 0-3 0-4 1-1 0-2 0-2-1 0-1-1-2-1-3-1-1-2-2-2-2 0-1 14-11 17-13 0-1 1 0 0 2 0 3 2 3 5 0 3-2 7-3 6-1-1 1-2 1-3 1-1 0-2 1-2 1 1 3 5 2 8 0 4-4 6-3 7 0l0 2 3-2c1-1 3-2 5-2 1 0 4 0 6-1 3-1 3-1 2 1-2 3 3 4 8 1 4-2 5-2 5-1-1 0 2 1 6 2 6 1 6 1 9-1 1-1 2-2 5-1 1 0 4 0 5-1 2-1 2-1 3 0 1 1 1 1 2 0 1-1 3-1 5 0 4 0 4 0 3 3-1 2-2 4-2 5-1 1 0 1 2 1 1 0 3-1 4-3 1-2 3-4 4-4 3 0 3 2 0 3-2 1-2 1 0 1 2 0 6 1 9 3 7 2 9 3 12 0 1-1 1-1-1-3-1-2-1-2 0-3 2-1 3-1 2 1 0 1 1 1 2 1 5 1 8 0 14-3 7-3 12-4 12-2 0 1 0 1-1 2 0 0-1 1-1 1 0 2 2 1 5-2 3-3 4-3 7-3 2 0 2 0 1 2-1 1-1 1 0 1 1 0 2 0 3-1 0 0 1 0 2 1 1 1 5 2 9 3 5 1 7 2 10 4l3 4 3-2c4-2 14-3 16-1 2 2 1 4-1 6-4 3-4 4 1 3 2 0 5 0 6 0 2 0 3-1 0-5 0-2-1-4-1-5 1-2 5-3 6-1 0 1-1 1-2 0-2 0-3 0-3 1 0 3 2 4 9 5 6 0 6 0 6-2-1-1 0-2 0-2 0 0 4 2 7 4 4 3 9 4 11 5 2 0 4 1 3 1 0 1 1 1 2 1 2 0 4 1 5 3 2 3 3 3 6 3 3-1 3-1 3 2 0 3 3 6 4 3 0-2 2-1 5 1 1 1 2 2 3 2 2 0 2 0 1 2-1 2-1 2 1 2 12-3 21-4 24-3 4 1 5 2 0 4l-3 1 4 0c3 0 9 1 14 4 14 5 15 5 18 0 3-5 3-9-1-6 0 1-1 1-3 0-4-2-3-3 1-4 2 0 5 1 10 5 4 3 7 4 9 4 1-1 2 0 2 1 0 2 1 3 4 0 2-1 2-1 6 2 5 3 5 3-3 5-4 1-6 1-7 0-3-2-4-2-3 2 1 2 2 3 3 3 1 0 3 1 3 3 1 2 4 5 4 4 2-5 8-7 19-6 6 0 7 1 13 5 4 3 8 5 9 5 1 0 0 1-3 2-5 2-5 4-1 4 2 0 3 1 3 3 0 2-2 3-5 2-2-1-2-2-2-5 0-4 0-5-2-5-1-1-4 0-5 0-2 1-5 2-8 2-2 0-4 0-4 1 0 1 0 3-1 4 0 2 0 2 4 1 4 0 6 0 11 3 11 6 13 6 19 0 2-1 4-2 5-2 2 0 2 0 1-1-1-1 3-5 6-5 1 0 1 0 0 1-3 2-1 3 2 3 2 0 2 0 1 2-2 1-2 1 0 3 1 0 2 1 3 1 0-1 1-1 1 0 0 0 1 2 2 4 2 1 3 4 3 6 0 6 1 7 3 4 2-1 5-2 12-2 14-1 17 0 17 3 1 2 0 4-1 6-1 2-1 2 0 3 1 1 3 1 4 1 2 0 3 1 3 1 0 1 1 1 3 1 2 0 3 1 3 1 0 3 3 5 9 5 6 1 10 3 6 3-1 0-2 0-2 1 0 1 4 2 14 4 6 2 6 2 2 2-3 0-4 0-4 2 0 2 3 4 6 4 2 0 3 0 3-2-1-3 2-3 3 0 0 2 1 3 0 3 0 1 3 1 7 2 6 1 8 2 6 2-1 1-2 1-3 0-2-1-2-1-2 1 0 2 2 3 6 5l5 3-5 0-5 1 2 3c4 5 11 10 25 15 6 2 12 4 13 5l3 1-3-2c-2-3-2-6 1-6 2 0 12 5 15 8 1 1 3 2 5 3 3 2 5 5 4 6-1 0-2-1-4-3-4-5-12-6-20-4-8 2-4 8 6 8 10 0 19 5 22 13 1 2 2 4 2 4 1 0 3-1 6-2 4-3 7-4 9-2 1 2 1 2-1 2-2 1-2 1-1 3 1 2 1 2-6 2-5 0-7 0-7 2 0 2 4 4 12 5 5 1 8 1 9 1 0 0-1 1-2 1-2 1-2 1 2 3 3 2 9 4 15 6 5 1 10 3 11 3 3 2 1 3-2 2-5-1-5 0-1 4 3 2 5 4 5 5 0 0 1 1 2 2 1 1 1 2-1 2-1 0-1 1 2 4 2 1 3 2 2 1-1-1-1-2 1-2 4-1 6-1 6 1 1 2 0 3-2 2-2 0-3 0-3 1 1 1 15 9 27 15 11 5 11 5 9 7-2 1-2 1-6-1-5-3-11-5-12-3-1 1 0 1 1 2 0 0 1 1 1 2-1 1 0 2 0 3 2 1 9 3 9 1 0 0 4-1 8-1 7 0 8 0 10 2 3 3 3 5-1 6l-2 1 3 3c4 5 5 6 7 6 1 0 1 0 0-2-3-3-2-2 3 1 5 2 5 2 4 5-1 2-1 2 1 4 1 1 1 2 1 2 0 0-4-1-7-2z" horiz-adv-x="1000" />

<glyph glyph-name="arr-hw-left" unicode="&#xe820;" d="M185 565c-2 0-5-1-7-1l-4 0 2-2c1-1 4-2 6-3 8-3 5-4-4-2-3 1-4 2-4 3 0 1-2 2-6 2-4 0-6 0-7 1-1 1-2 1-6-3-6-5-9-5-8-1 2 3 1 4-1 4-2 0-3 0-3-3 0-2 0-2-2-2 0 1-2 1-2 0-2-1-13-5-13-4 0 1 0 1-1 1 0-1-2 0-3 2-4 2-3 4 1 4 2 0 3 2 1 2-1 1-7 0-7-1 0-1-1-2-1-2-1-1-2 0-2 0 0 2-3 1-4-1-3-2-5-3-5-1-1 1-1 1-1 0 0-2-2-3-4-1 0 1-1 1-1-1 0-2-1-3-3-3-1 0-2-1-2-2-1-3-3-3-2 0 0 3-2 3-7 0-2-1-4-2-5-1 0 0-6-2-12-5-10-5-11-6-10-7 0-2 0-5 1-8 0-5 0-6-1-6-1 0-2-1-2-8 0-4 0-9 0-11 0-3 0-3-2-2-2 1-3 2-3 2-2 0-1-4 1-9 1-3 2-7 2-9 0-1 0-3 0-4 1-1 1-1-1-1-2 0-2-1-2-4 0-6 1-10 4-13 2-2 2-3-1-4-1 0 0-2 0-3 1-2 3-7 4-11 1-4 2-8 3-9 0-1 1-2 0-2 0-1 1-2 2-3 2-3 2-3 1-4-3-2-4-12-2-15 1-1 1-1 0-1-1 0 1-7 7-17 2-4 4-9 4-12 1-5 2-6 3-5 2 0 4-1 8-6 4-4 6-7 5-7 0-1-2 0-4 1l-2 2-2-2c-2-3-1-6 2-5 2 0 3 0 3-1 0-1 0-2-1-2-1 0-1 0 0-1 0 0 1-1 2-1 1 0 2-1 3-5 6-17 9-24 10-23 1 0 8-4 9-7 1-2 1-2 0-3-3-2 0-5 6-8 4-2 5-3 4-1-1 2-1 2 0 3 1 2 4 0 4-3 0-2 1-2 3 0 1 1 1 1 0 1-2 0-5 3-4 4 0 0-1 2-3 4-3 2-3 2-2 0 0-1 0-2-1-1-2 0-3 3-3 6 0 2 1 2 3 2 2 0 4 3 2 5-1 1-3 2-14 3-1 1-3 1-4 2-1 0-1 4 0 4 1 0 1 1 0 2-1 2 3 1 7-3 4-3 5-4 6-3 2 1 1 2-4 8-6 6-10 12-12 16 0 1 0 1 2 0 2-1 2-1 4 0 1 2 1 2-1 3-2 0-4 0-4 0-1-1-2 0-2 0 0 0 0 2-1 2 0 2 0 2 2 1 2 0 2 0 2 3-1 2-1 5-1 6-1 2 0 3 3 1 1-1 2-1 3-1 0 1-3 4-7 8-5 4-7 8-7 9 0 2 0 2 2 1 2-2-3 3-7 6-3 2-4 4-2 6 1 0 3-1 6-2 4-3 5-3 6-2 0 1 1 2 2 2 1 0 2 1 2 1 0 1-3 2-6 2-3 0-6 1-6 1-1 1 0 2 1 4 2 2 2 3 1 7-1 4-2 5-9 10-3 2-2 5 2 5 4 0 11-3 12-6 1-1 1-3 0-4 0-2 0-3 2-3 1 0 1 1 1 5-1 7-4 12-7 13-1 0-2 0-3-2 0-2-1-1-5 6-4 9-5 17-2 20 1 2 1 2 4 0 3-2 4-2 2 2-1 3-1 3 1 4 2 1 2 1 2 0 0-1 1-2 2-2 2-1 1-1-1 4l-3 3 3 2c1 1 2 2 1 2 0 1-1 1-3 0-2-1-2-1-3 1-1 1-1 3 0 3 1 2 4 1 4-1 1 0 1-1 2-1 0 1-1 3-2 6-3 5-3 6-1 6 0 0 1 0 1-1 0-1 0-1 1-1 0 1-1 3-2 5-3 4-3 5-2 6 2 1 2 5 1 8-1 2-1 2 4 2 2 0 5 0 6 1 1 1 1 4 0 5-1 1-1 2 0 3 1 1 2 3 3 5 1 5 2 6 9 6 5 0 7 0 9 2 2 2 2 3 3-2 1-1 0-3-2-4-2-1-3-3-4-5-1-3-4-3-6 2 0 2-1 4-2 4-1 0-3-2-3-4 0-2 1-2 3-2 2 1 3-1 1-4-3-2-2-3 1-3 1 0 4 0 6-1 3-1 4-1 7 1 2 1 3 2 4 2 1 0 6 7 6 9 0 2 3 3 4 0 0-1 1-1 2-1 1 1 2 0 3-2 1-3 1-3-1-3-2 0-9-7-8-7 0-1 2-1 4-2 2 0 3 0 3 2 1 2 1 2 2 1 1-2 2-2 3 0 0 1 1 1 6-1 5-1 8-1 9 2 0 2-3 3-4 1-2-3-3-1-2 5 0 6 2 6 11 5 3 0 6 0 8 1 3 1 3 1 2 0 0-1-1-2-1-3 0-2 5-1 11 4 7 6 8 6 7 3-1-1 0-2 1-1 1 0 2 0 2-1 2-2 4-1 4 1 0 2 3 1 3-2 0-3 2-4 2-2 0 2 3 1 4-1 1-1 3-2 7-2 2-1 7-2 9-3 5-2 5-2 4 0 0 1 1 2 4 2 4 1 6 0 6-2 0-2 0-2-1-2-1 1-2 1-2 0 0-2 3-1 4 1 0 1 0 3-1 5-2 4-2 5 0 5 0 0 2 1 4 2 2 1 2 1 2 0 0-1-1-2-1-4-2-2-2-4 0-6 1-1 6 0 10 3l2 2 1-2c1-2 4-3 6-4 7-2 10-3 10-5 0-2 3-1 5 3 3 4 4 4 3 1-1-4 1-4 7 0 5 3 11 4 10 1 0-1 2-1 3 0 0 1 0 2-1 3-1 1-1 1 0 3 2 2 4 1 8-2 3-2 5-3 6-3 1 0 0-1-1-2-2-1-2-2-1-2 1 0 3 1 4 3 4 4 5 3 3-2-2-3-2-4 0-5 1 0 2-1 3 0 1 0 2 0 2-1 0 0 1-1 1 0 1 0 3 0 4-1 1-1 2-1 4 0 1 1 2 1 5-1 2-2 4-3 3-3 0-1 1-1 3 0 4 0 7-1 5-4-1-1 0-1 2-2 2 0 5 0 6 0 1 1 2 0 1-2 0-3 2-4 4-2 1 2 4 1 4-2 0-1 0-1-1-1-1 1-2 1-2 0 0-1 1-1 3 0 3 0 4-1 2-4-2-1 1-1 10 2 4 2 4 2 5 5 0 3-1 4-3 5-3 0-3 4 1 5 2 0 2 0 0 2-1 1-2 2-1 3 0 1 0 3-1 5-1 1-2 3-1 3 0 1-1 0-2-1-3-2-5-2-5 1 0 0 1 2 2 2 2 1 2 2 1 2-1 0-1 1-1 3 1 3 0 5-2 5-3 0-6 3-9 9-2 3-6 4-5 1 0-1 1-2 1-3 1-3-4-2-4 0-1 3-1 2-2 0-1-4-2-4-4 0-1 2-1 3 1 3 2 2 1 3-1 2-3 0-4 2-2 2 1 1-1 1-4 1-3 1-6 2-8 3-2 1-5 2-6 2-2 0-3 1-3 2 0 1-1 1-1 1-1 0-1 0-1 1 0 0-1 1-4 0-6-1-13-1-12 0 0 1-1 1-3 0-1-1-1-1-1 0 0 1-1 2-7 1-6 0-7 1-7 2 0 1-1 1-2 1 0-1-1-1 0 0 0 1-1 1-4 0-1-1-3-2-4-2-2 0-2 0-1 2 2 5 1 5-4 2l-5-2-2 2c-1 2-1 2-3 1-1-1-1-1-1 0 1 3-9 2-18 0-5-2-10-3-12-3-4-1-11 1-13 3-1 1-2 0-5-2-4-2-5-3-6-2 0 1-1 2-1 3 0 1-2 2-3 1-1 0-3-1-4-1-3-1-3 0-3 2 1 3-4 4-11 2z m42-135c1-2 1-2 0-4-1-3-1-3 4-5 5-3 6-4 4-1-2 2-2 2-1 2 2 0 3-1 7-6l3-3-2-1c-4-1-4-3-1-6 2-2 4-2 10-2 5 0 8 1 8 1 0 2 7 0 9-1 1-1 1-2 1-3-1-1 0-2 1-2 0-1 1-1 0-2 0-2-7 0-12 3-4 2-4 2-6 1-2-2-2-2 9-7 12-6 26-14 27-15 0-1-1-1-3-1-2 1-3 0-2-2 0-2 2-2 6-1 2 0 2 1 1 2-1 1 0 0 2-1 3-3 3-4 2-4-2 0-2-1-1-2 1-1 2-2 2-2 0-1 2-3 5-5 5-4 4-5-1-4-3 1-5 0-2-2 1 0 6-2 12-3 5-2 12-4 14-6 4-2 4-2 2-3-1 0-2-1-2-1 1 0 4 0 9-1 8-1 12-3 12-5 0-2-1-2-7-2-7 0-7 0-6-2 1-2 1-2-1-3-2 0-2 0-1-2 2-2 5-1 10 2 2 1 4 2 5 2 0 0 1-2 2-4 3-8 12-13 23-13 9 0 13-6 5-8-8-2-16-1-20 4-2 2-3 3-3 3-2-1 0-4 3-6 2-1 4-2 5-3 3-3 13-8 15-8 3 0 4 3 1 6l-2 2 2-1c1-1 7-3 14-5 13-5 20-10 24-15l2-3-5-1-4 0 5-3c3-2 5-3 5-5 0-2 0-2-2-1-1 1-2 1-3 0-2 0 0-1 6-2 4-1 7-1 7-2-1 0 0-1 0-3 1-3 4-3 3 0 0 2 1 2 3 2 3 0 6-2 6-4 0-2-1-2-4-2-4 0-4 0 2-2 10-2 14-3 14-4 0-1-1-1-2-1-4 0 0-2 6-3 6 0 9-2 9-5 0 0 1-1 3-1 2 0 3 0 3-1 0 0 1-1 3-1 1 0 3 0 4-1 1-1 1-1 0-3-1-2-2-4-1-6 0-3 4-4 17-3 7 0 10 1 12 2 2 3 3 2 3-4 1-2 2-5 3-6 1-2 2-4 2-4 0-1 1-1 1 0 1 0 2-1 4-1 2-2 2-2 0-3-2-2-2-2 0-2 4 0 5-1 2-3-1-1-1-1 0-1 3 0 7 4 6 5-1 1-1 1 1 1 1 0 3 1 5 2 6 6 8 6 19 0 5-3 7-3 11-3 4 1 4 1 4-1-1-1-1-3-1-4 0-1-1-1-4-1-3 0-6-1-7-2-2 0-4-1-6 0-2 0-2 1-2 5 0 3 0 4-2 5-3 1-5 0-5-2 0-2 1-3 3-3 4 0 4-2-1-4-3-1-4-2-3-2 1 0 5-2 9-5 6-4 7-5 14-5 10-1 16 1 18 6 0 1 3-2 4-4 1-2 2-3 3-3 1 0 2-1 3-3 1-4 0-4-2-2-2 1-4 1-8 0-8-2-8-2-3-5 4-3 4-3 6-2 3 3 4 2 4 0 0-1 1-2 2-1 2 0 5-1 10-4 5-4 7-5 9-5 4 1 5 2 1 4-1 1-3 1-3 0-4-3-4 1-1 6 3 5 4 5 18 0 5-3 11-4 14-4l5 0-4-1c-4-2-4-3 0-4 4-1 12 0 24 3 2 0 2 0 1-2-1-2-1-2 1-2 1 0 3-1 4-2 2-2 4-3 4-1 1 3 5 0 4-3 0-3 0-3 3-2 3 0 4 0 6-3 1-2 3-3 5-3 1 0 2 0 2-1-1 0 1-1 3-1 2-1 7-2 11-5 4-2 7-4 7-4 1 0 1 1 0 2 0 2 0 2 6 2 7-1 9-2 9-5 0-1-1-1-3-1-1 1-2 1-1 0 1-2 4-1 5 1 0 1 0 3-1 5-2 4-2 5 0 5 2 0 4 0 6 0 5 1 5 0 2-3-3-2-4-4-2-6 2-2 12-1 16 1l4 2 3-4c2-2 4-3 9-4 4-1 8-2 9-3 1-1 2-1 3-1 0 1 1 1 2 1 1 0 1 0 0-1-1-2-1-2 1-2 3 0 5 0 7 3 3 3 5 4 5 2 0 0 0-1-1-1-1-1-1-1-1-2 0-2 5-1 12 2 6 3 9 4 14 3 2 0 2 0 2-1-1-2 0-2 2-1 1 1 1 1 0 3-2 2-2 2 0 3 2 3 4 2 11 0 3-2 7-3 9-3 2 0 3 0 0-1-2-1-3-3 0-3 1 0 3 2 4 4 1 2 3 3 5 3 1 0 2 0 1-1 0-1-1-3-2-5-1-3-1-3 3-3 2-1 4-1 5 0 1 1 1 1 2 0 1-1 1-1 3 0 1 1 4 1 5 1 3-1 4 0 6 1 2 2 2 2 8 1 4-1 7-2 6-2 0-1 1-1 5 1 5 3 10 2 8-1-1-2-1-2 2-1 2 1 5 1 6 1 2 0 4 1 5 2l3 2 0-2c1-3 4-4 7 0 3 2 7 3 8 0 0 0-1-1-2-1-1 0-2 0-2-1-2-2 2-1 5 1 3 3 5 3 5 0-1-2 0-3 0-2 3 2 17 12 17 13 0 0-1 1-1 2-1 1-2 2-2 3 0 1-1 1-2 1-1-1-3-1-4-2-3 0-4 3-1 6l3 2-3 0c-3-1-4 0-4 1 1 2 0 3-3 4-2 0-3 1-4 2 0 1-1 0-2-2-1-3-4-5-6-3-1 2-1 2 1 5 2 2 2 2 1 2-2-1-3 0-4 2-1 3-1 3-4 3-5-2-10-1-15 2-3 1-6 2-8 2l-2-1 2-2c2-3 2-5 0-5-1 0-2 1-3 2-2 2-3 1-3-2 0-4-2-5-5-2-2 3-2 3 0 5 1 1 1 2 0 2 0 0-1 0-1-1-1 0-2-1-4-1-2 0-2 0 0 2 1 1 1 1-1 0-5-1-30-1-30 1 0 0-1 1-2 0-2 0-2 0-1 1 0 1 0 1-2 1-7-3-22-5-20-3 0 1 0 1-2 0-3-1-3-1-3 1 1 1 1 1-1 0-1 0-6 0-10 0-5 0-7 0-7 1 0 1-1 1-2 1-1-1-2 0-1 0 0 1-1 1-6 0-2-1-5-2-6-2-2 0-2 0-1 2 2 2 3 5 1 5-1 0-4-1-7-2-5-2-5-2-7 0-2 1-3 2-3 1-1 0-2 0-2 1-3 3-12 3-25 2-15-1-21-1-30 4-6 3-7 3-12 2-4-1-6-1-6-1-1 0-1 2-2 5-1 2-2 3-3 2 0 0-2-1-6 0-5 0-6 2-3 3 4 1-3 5-15 7-6 0-12 2-13 3l-3 1 3-3c1-2 5-5 8-7 3-2 6-3 6-4 0 0-6 2-12 5-6 2-7 3-5 4 1 1 1 1-1 3-2 0-5 1-7 2-6 0-8 2-8 4 0 1-1 1-6 0-8-1-15-1-16 0 0 1 1 2 2 3 2 2 3 3 3 3 0 1-1 1-3 2-3 1-4 1-5-2 0-1-1-1-2 0-1 1-4 1-6 2-8 0-15 1-17 3-2 2-6 7-6 8 0 1 4 1 7 0 1-1 2-1 2 0 0 2-9 5-10 4 0-1-5-1-5 0 0 1-1 2-5 2-5 0-6 0-7 1-1 2-1 2-3 1-1-1-1-1-3 1-1 2-1 2-3 1-2-1-3-2-5-1-2 1-3 1-5 0-2-2-4 0-1 1 1 2 1 2-2 3-2 0-5 1-7 2-7 1-8 1-8 3 1 0 0 1-1 0-1 0-5 1-8 2-5 2-6 3-6 4 1 2 0 2-1 2-2 0-4 1-4 2-1 0-4 2-7 3-12 4-17 8-11 9 4 1 1 3-9 5-9 2-14 4-14 6 0 1-1 1-2 1-3 0-3 0-2 2 1 1 0 2-4 5-6 4-15 6-19 6-2-1-2 0-2 2 1 3 0 3-3 4-3 1-9 4-15 7-6 3-11 5-12 5 0 0-2 1-3 1 0 1-3 2-5 3-5 0-5 0-4 3 0 2 0 3-2 4-1 1-4 3-6 6-3 2-5 4-6 4-1 0-2 0-1 1 0 1-4 3-10 6-16 8-24 13-29 18-4 3-5 4-6 3-2-2-7-1-16 3-10 4-10 4-8 5 0 1 2 1 4 0 2-1 3-1 3-1 1 0 1 2 0 4 0 4-3 5-6 4-2-2-6 0-4 1 2 2 1 3-2 3-3 0-5 1-14 8-5 4-12 10-16 14-3 3-6 6-6 6-1 0-1-1-1-1 0-2 1-2-6 0-8 4-11 6-11 8 1 3-3 6-11 8-7 2-7 2-5 0z" horiz-adv-x="1000" />

<glyph glyph-name="arr-hw-down" unicode="&#xe821;" d="M698 799c-1-1-2-2-3-2-1 0-1-1 0-2 0-1 0-3 1-4 1-3-3-4-6-1l-2 3 0-3c1-3 0-4-1-4-2 1-3 0-4-3 0-2-1-3-2-4-1 0 0-1 2-2 4-1 5-4 3-6-2-1-2-1-5 1-2 2-2 2-2 1 1-2 0-3-2-4-3-1-3-1-2-4 1-5 0-10-2-15-2-3-3-6-3-8l1-2 3 2c2 2 4 2 4 0 0-1-1-2-1-3-3-2-2-3 1-3 4 0 5-2 2-5-3-2-3-2-5 0-1 1-2 1-2 0 0 0 1-1 1-1 1-1 1-2 1-4 0-2 0-2-2 0-1 1-1 1 0-1 1-5 1-30-1-30 0 0-1-1 0-2 0-2 0-2-1-1-1 0-1 0-1-2 3-7 5-22 3-20-1 0-1 0 0-2 1-3 1-3-1-3-1 1-1 1 0-1 0-1 1-6 1-10 0-5-1-7-2-7-1 0-1-1-1-2 1-1 0-2 0-1-1 0-1-1 1-6 0-2 1-5 1-6 0-2 0-2-2-1-1 2-5 3-5 1 1-1 2-4 3-7 1-5 1-5-1-7-1-2-2-3-1-3 0-1 0-2-1-2-3-3-3-12-2-25 2-15 1-21-4-30-3-6-3-7-2-12 1-4 1-6 1-6 0-1-2-1-4-2-3-1-4-2-3-3 0 0 1-2 0-6 0-5-1-6-3-3-1 4-4-3-6-15-1-6-3-12-4-13l-1-3 3 3c2 1 5 5 7 8 2 3 4 6 4 6 1 0-1-6-5-12-2-6-3-7-4-5-1 1-1 1-2-1-1-2-2-5-3-7 0-6-2-8-4-8-1 0-1-1 0-6 1-8 1-15 0-16-1 0-2 1-3 2-2 2-3 3-3 3 0 0-1-1-2-3-1-3-1-4 3-5 0 0 0-1-1-2-1-1-1-4-1-6-1-8-2-15-4-17-2-2-7-6-8-6-1 0-1 4 1 7 0 1 0 2-1 2-1 0-5-9-4-10 2 0 1-5 0-5-1 0-1-1-1-5 0-5-1-6-2-7-2-1-2-1-1-3 1-1 1-1-1-3-2-1-2-1-1-3 2-2 2-3 1-5-1-2-1-3 1-5 1-2 0-4-2-1-2 1-2 1-3-2 0-2-1-5-1-7-1-7-2-8-3-8-1 1-2 0-1-1 0-1-1-5-2-8-2-5-3-6-4-6-1 1-2 0-2-1 0-2-1-4-1-4-1-1-3-4-4-7-4-12-8-17-9-11-1 4-3 1-5-9-2-9-4-14-6-14-1 0-1-1-1-2 0-3 0-3-2-2-1 1-2 0-5-4-4-6-6-15-6-19 1-2 1-2-2-2-2 1-3 0-4-3-1-3-4-9-7-15-3-6-5-11-5-12 0 0-1-2-1-3-1 0-2-3-2-5-1-5-1-5-4-4-2 0-3 0-4-2-1-1-3-4-6-6-2-3-4-5-4-6 0-1 0-2-1-1 0 0-3-4-6-10-8-16-13-24-18-29-3-4-4-5-3-6 2-2 1-7-3-16-4-10-4-10-5-8-1 0-1 2 0 4 1 2 1 3 1 3 0 1-2 1-4 0-3 0-5-3-4-6 2-2 0-6-1-4-2 2-3 1-3-2 1-3-1-5-7-14-5-5-11-12-15-16-3-3-6-6-6-6 0-1 1-1 2-1 1 0 1 1-1-6-4-8-6-11-8-11-3 1-6-3-8-11-2-7-2-7 0-5 2 1 3 1 4 0 3-1 3-1 5 4 4 5 4 6 1 4-1-2-2-2-2-1 0 2 1 3 6 7l3 3 1-2c1-4 3-4 6-1 2 2 2 4 2 10 0 5-1 8-1 8-1 0 0 7 1 9 1 1 2 1 3 1 1-1 2 0 2 1 1 0 2 1 2 0 2 0 0-7-3-12-2-4-2-4 0-6 1-2 1-2 6 9 6 12 14 26 15 27 1 0 1-1 1-3-1-2 0-3 2-2 2 0 3 2 1 6 0 2 0 2-2 1-1-1 0 0 2 2 2 3 3 3 3 2 1-2 1-2 2-1 1 1 2 2 2 2 1 0 3 2 5 5 4 5 6 4 4-1-1-3 0-5 2-2 0 1 2 6 4 12 1 5 3 12 5 14 2 4 2 4 3 2 1-1 1-2 1-2 0 1 1 4 1 9 1 8 3 12 6 12 1 0 1-1 1-7 0-7 0-7 2-6 2 1 2 1 3-1 0-2 1-2 2-1 2 2 1 5-1 10-2 2-3 4-3 5 0 0 2 1 4 2 8 3 13 12 13 23 0 9 6 13 8 5 2-8 1-16-4-20-2-2-3-3-3-3 2-2 4 0 6 3 1 2 2 4 3 5 3 3 8 13 8 15 0 3-3 4-6 1l-2-2 1 2c1 1 3 7 5 14 6 13 10 20 15 24l4 2 0-5 1-4 2 5c2 3 3 5 5 5 2 0 2 0 1-2-1-1-1-2 0-3 0-2 1 0 2 6 1 4 1 7 2 7 0-1 2 0 3 0 3 1 4 4 0 3-2 0-2 1-2 3 0 3 2 6 4 6 2 0 2-1 2-4 0-4 0-4 2 2 2 10 3 14 4 14 1 0 1-1 1-2 0-4 2 0 3 6 0 6 2 9 5 9 1 0 1 1 1 3 0 2 1 3 1 3 1 0 1 1 1 3 0 1 0 3 1 4 1 1 1 1 3 0 2-1 4-2 6-1 4 0 4 4 3 17 0 7-1 10-2 12-2 2-1 3 4 3 2 1 5 2 7 3 1 1 3 2 3 2 1 0 1 1 0 1 0 1 1 2 1 4 2 2 2 2 3 0 2-2 2-2 2 0 0 4 2 5 3 2 1-1 1-1 1 0 0 3-3 7-5 6-1-1-1-1-1 1 0 1-1 3-2 5-6 6-6 8 0 19 3 5 3 7 3 11-1 4-1 4 1 4 2-1 3-1 4-1 1 0 1-1 1-4 0-3 1-6 2-7 0-2 1-4 1-6-1-2-2-2-6-2-3 0-4 0-5-2-1-3 0-5 2-5 2 0 3 1 3 3 0 4 2 4 4-1 1-3 2-4 2-3 0 1 2 5 5 9 4 6 5 7 5 14 1 10-1 16-6 18-1 0 2 3 4 4 2 1 3 2 3 3 0 1 1 2 3 3 4 1 4 0 2-2-1-2-1-4 0-8 2-8 2-8 5-3 3 4 3 4 2 6-2 3-2 4 0 4 1 0 2 1 1 2 0 2 2 5 5 10 3 5 4 7 4 9-1 4-2 5-4 1-1-1-1-3 0-3 3-4-1-4-6-1-5 3-5 4 1 18 2 5 3 11 3 14l0 5 1-4c2-4 3-4 4 0 1 4 0 12-3 24 0 2 0 2 2 1 2-1 2-1 2 1 0 1 1 3 2 4 2 2 3 4 1 4-3 1 0 5 3 4 3 0 3 0 2 3 0 3 0 4 3 6 2 1 3 3 3 5 0 1 0 2 1 2 0-1 1 1 1 3 1 2 3 7 5 11 2 4 4 7 4 7 0 1-1 1-2 0-2 0-2 0-2 6 1 7 2 9 5 9 1 0 1-1 1-3-1-1-1-2 0-1 2 1 1 4-1 5 0 0-3 0-5-1-4-2-5-2-5 0 0 2 0 4 0 6-1 5 0 5 3 2 2-3 4-4 6-2 2 2 1 12-1 16l-1 4 3 3c2 2 3 4 4 9 1 4 2 8 3 9 1 1 2 2 1 3-1 0-1 1-1 2 0 1 0 1 2 0 1-1 1-1 1 1 0 3 0 5-3 7-3 3-4 5-2 5 1 0 1 0 2-1 0 0 1-1 1-1 2 0 1 5-2 12-3 6-3 9-3 14 0 2 0 2 2 2 1-1 1 0 0 2-1 1-1 1-3 0-2-2-2-2-3 0-3 2-2 4 1 11 1 3 2 7 2 9 0 2 0 3 1 0 2-2 3-3 3 0 0 1-1 3-3 4-3 1-4 3-4 5 0 1 0 2 1 1 1 0 3-1 5-2 3-1 3-1 4 3 0 2 0 4-1 5-1 1-1 1 0 2 1 1 1 1 0 3-1 1-1 4-1 5 1 3 1 4-1 6-2 2-2 2-1 8 1 4 2 7 2 6 2 0 1 1-1 5-3 5-2 10 1 8 2-1 2-1 1 2-1 2-1 5-1 6 0 2-1 4-2 5l-2 3 2 0c3 1 4 4 1 7-3 3-3 7-1 8 1 0 1-1 1-2 0-1 1-2 1-2 2-2 1 2-1 5-3 3-3 5 1 5 1-1 2 0 1 0-1 3-12 17-13 17 0 0-1-1-2-1z m-356-570c0-1-2-2-3-1-1 0-3 0-4-1-2-1-4-2-4-1-1 0 0-1 1-2 2-3 2-5 0-5-1 0-3 1-3 2-1 2-2 2-2 1 0-1-1-1-3-1-3 1-5 0-5-2 0-3-3-6-9-9-3-2-4-6-1-5 1 0 2 1 3 1 3 1 3-4 0-4-2-1-2-1 0-2 4-1 4-2 0-4-2-1-3-1-3 1-2 2-3 1-2-1 0-3-1-4-2-2 0 1-1-1-1-4-1-3-2-6-3-8-1-2-2-5-2-6 0-2-1-3-2-3 0 0-1-1-1-1 0-1 0-1-1-1 0 0 0-1 0-4 1-6 1-13 0-12-1 0-1-1 0-3 1-1 1-1 0-1-1 0-1-1-1-7 0-6 0-7-2-7-1 0-1-1-1-2 1 0 1-1 0 0-1 0-1-1 1-4 0-1 1-3 1-4 0-2 0-2-2-1-4 2-5 1-2-4l2-5-2-2c-2-1-2-1-1-3 1-1 1-1 0-1-3 1-2-9 0-18 2-5 3-10 4-12 0-4-1-11-4-13-1-1 0-2 2-5 2-4 3-5 2-6-1 0-2-1-3-1-1 0-2-2-1-3 0-1 1-3 1-4 1-3 1-3-2-3-3 1-4-2-2-10 1-4 1-8 1-10l0-2 2 2c1 1 2 4 3 6 3 8 4 5 2-4-1-3-2-4-3-4-1 0-1-2-1-6 0-4-1-6-2-7-1-1 0-2 3-6 5-6 5-10 1-8-3 1-4 1-4-2 0-2 1-2 3-2 2 0 2 0 2-2-1-1-1-2 0-2 1-2 5-13 4-13-1 0-1 0-1-1 1 0 0-2-2-4-2-3-4-2-4 2 0 2-1 3-2 1-1-1 0-7 2-7 0 0 1-1 1-2 1 0 1-1 0-1-2 0-1-3 1-5 2-2 3-4 1-4-1-1-1-1 0-1 2 0 3-3 1-4-1 0-1-1 1-1 2 0 3-1 3-3 0-1 1-2 2-3 3 0 3-2 0-1-3 0-3-2 0-7 1-2 2-5 2-5-1 0 1-6 4-12 5-10 6-11 7-11 2 1 5 1 8 2 5 0 6 0 6-1 0-1 2-2 8-2 4 0 9 0 11 0 3 0 3 0 2-3-1-1-2-2-2-3 0-1 4 0 10 2 3 1 6 2 8 2 1 0 3 0 4 0 1 1 1 0 1-1 0-2 1-2 4-2 6 0 10 1 13 4 2 2 3 2 4-1 0-1 2 0 4 0 1 1 6 3 10 4 4 0 8 2 9 3 1 0 2 1 2 0 1 0 2 1 4 2 2 2 2 2 3 0 2-2 13-3 15-1 1 1 1 1 1 0 0-1 7 1 17 6 4 2 10 5 12 5 5 1 6 1 5 3 0 2 1 4 6 8 4 4 7 6 7 5 1-1 0-2-1-4l-2-2 2-2c3-2 6-1 5 2 0 2 0 3 2 3 0 0 1-1 1-1 0-1 1-1 1-1 1 1 1 2 1 3 0 1 2 2 5 3 17 6 24 8 24 10-1 1 3 8 6 9 2 1 3 1 3 0 2-3 5 0 8 5 3 5 3 6 1 5-1-1-2-1-3 0-2 1 0 4 3 4 2 0 3 1 1 3-2 1-2 1-2 0 0-2-3-5-4-5 0 1-2 0-3-2-3-3-3-3-1-2 2 0 2 0 1-1 0-2-3-3-6-3-1 0-2 1-2 2 0 3-2 5-5 3-1-1-2-3-3-14-1-2-1-3-1-4-1-1-5-1-5 0 0 0-1 1-1 0-3-1-2 3 2 7 3 4 4 5 3 6-1 2-2 1-8-4-6-6-12-10-16-12-1 0-1 0 0 2 1 2 1 2 0 4-2 1-2 1-2-1-1-2-1-4-1-5 1 0 1-1 0-1 0 0-1 0-2-1-1 0-2 0-1 2 0 1 0 2-3 1-2 0-5 0-6-1-2 0-3 1-1 4 1 1 1 2 1 3-1 0-4-3-8-7-4-5-7-7-9-7-2 0-2 0-1 2 2 2-3-3-6-7-2-3-4-4-6-2 0 1 1 3 3 6 2 4 2 5 1 6-1 0-2 1-2 2 0 1 0 2-1 2-1-1-2-3-2-6 0-3-1-6-1-7 0 0-2 1-4 2-2 2-3 2-7 1-4-1-5-2-10-9-2-3-5-2-5 2 0 4 3 11 6 12 1 1 3 1 5 0 1 0 2 0 2 1 0 2-1 2-5 1-7 0-12-3-13-6 0-1 1-2 2-3 2-1 1-1-6-5-9-4-17-5-20-2-2 1-2 1 0 4 3 3 2 3-2 2-3-1-3-1-4 1-1 2-1 2 0 2 1 0 2 1 2 1 1 2 1 2-4-1l-3-2-2 3c-1 1-1 2-2 1-1-1-1-2 0-3 1-2 1-2-1-3-1-1-2-1-3-1-2 1-1 5 1 5 1 1 1 1 1 2-1 0-3-1-6-2-5-3-6-4-6-2 0 1 1 2 1 2 1 0 1 0 1 1-1 0-3-1-5-2-4-3-5-3-6-2-1 2-5 2-8 0-2 0-2 0-2 5 0 2 0 5-1 5-1 2-4 2-5 0-1 0-2 0-3 1-1 1-3 2-5 2-5 2-6 3-6 10 0 5 0 7-2 9-2 2-3 2 2 3 1 1 3-1 4-2 1-2 3-4 5-4 4-2 3-5-2-6-2-1-4-1-4-2 0-1 2-3 4-3 2 0 2 0 2 2-1 3 1 4 4 1 2-2 3-1 3 2 0 1 1 4 1 6 1 3 1 4-1 7-1 1-2 3-2 4 0 1-7 6-9 6-2 0-3 3 0 4 1 0 1 1 1 2-1 1 0 2 2 3 3 1 3 1 3-1 0-2 7-9 8-8 0 0 0 2 1 4 0 2 0 3-2 3-2 1-2 1-1 2 2 1 2 2 0 3-1 0-1 1 1 6 1 5 1 8-2 9-2 0-2-3-1-4 3-2 1-3-5-2-6 0-6 2-5 11 0 3 0 6-1 8-1 3-1 3 0 2 1 0 2-1 3-1 2 0 1 5-4 11-5 7-6 8-3 7 1-1 2 0 1 1 0 1 0 2 1 2 2 2 1 4-1 4-2 0 0 3 2 3 3 0 4 2 2 2-2 0-1 3 1 4 2 1 2 3 2 7 1 2 2 7 3 9 3 5 3 5 0 4-1 0-2 1-2 4-1 4 0 6 2 6 2 0 2 0 2-1-1-1 0-2 0-2 2 0 1 3-1 4 0 0-3 0-5-1-4-2-5-2-5 0 0 0-1 2-2 4-1 2-1 2 0 2 1 0 3-1 4-1 2-2 4-2 6 0 2 1 0 6-3 10l-2 2 2 1c2 1 3 4 4 6 2 7 3 10 5 10 2 0 1 3-2 5-5 3-5 4-1 3 3-1 3 1-1 7-3 5-4 11-1 10 1 0 1 2 0 3-1 0-2 0-2-1-2-1-2-1-3 0-3 2-2 4 1 8 2 3 3 5 3 6 0 1 1 0 2-1 1-2 2-2 2-1 0 1-1 3-3 4-4 4-3 5 2 3 3-2 4-2 5 0 0 1 1 2 0 3 0 1 0 2 1 2 1 0 1 1 0 1 0 1 0 3 1 4 1 1 1 2 0 4-1 1-1 2 1 5 2 2 3 4 3 3 1 0 1 1 0 3 0 4 2 7 4 5 1-1 1 0 2 2 0 2 0 5 0 6-1 1 0 2 2 1 3 0 4 2 2 4-2 1 0 4 2 4 1 0 1 0 1-1-1-1 0-2 0-2 1 0 1 1 1 3-1 3 1 4 3 2 1-2 1 1-2 10-2 4-2 4-5 5-3 0-4-1-4-3-1-3-5-3-6 1 0 2-1 2-2 0z" horiz-adv-x="1000" />

<glyph glyph-name="arr-hw-up" unicode="&#xe822;" d="M345 800c0-1 1-2 2-3 1-3 1-3-2-3-2 0-7 0-11 0-6 0-8-1-8-2 0-1-1-1-6-1-3 1-6 1-8 2-1 0-2-1-7-11-3-6-5-12-4-12 0 0-1-3-2-5-3-5-3-7 0-7 3 1 3-1 0-1-1-1-2-2-2-3 0-2-1-3-3-3-2 0-2-1-1-1 2-1 1-4-1-4-1 0-1 0 0-1 2 0 1-2-1-4-2-2-3-5-1-5 1 0 1-1 0-1 0-1-1-2-1-2-2 0-3-6-2-7 1-2 2-1 2 1 0 4 2 5 4 2 2-2 3-4 2-4 0-1 0-1 1-1 1 0-3-11-4-13-1 0-1-1 0-2 0-2 0-2-2-2-2 0-3 0-3-2 0-3 1-3 4-2 4 2 4-2-1-8-3-4-4-5-3-6 1-1 2-3 2-7 0-4 0-5 1-5 1 0 2-2 3-5 2-9 1-12-2-4-1 2-2 5-3 6l-2 3 0-3c0-2 0-6-1-9-2-9-1-12 2-11 3 0 3 0 2-3 0-1-1-3-1-4-1-1 0-3 1-3 1 0 2 0 3-1 1-1 0-2-2-5-2-4-3-5-2-6 3-2 4-9 4-13-1-2-2-7-4-12-2-9-3-19 0-18 1 0 1 0 0-1-1-1-1-2 1-3l2-2-2-5c-3-5-2-6 2-4 2 1 2 1 2-1 0-1-1-3-1-4-2-3-2-4-1-3 1 0 1-1 0-1 0-1 0-2 1-2 2 0 2-1 2-7 0-5 0-7 1-7 1 0 1 0 0-1-1-2-1-3 0-2 1 0 1-7 0-13 0-3 0-4 0-4 1 0 1 0 1-1 0 0 1-1 1-1 1 0 2-1 2-2 0-2 1-5 2-7 1-2 2-5 3-8 0-3 1-5 1-4 1 2 2 1 2-1-1-3 0-4 2-1 0 1 1 1 3 0 4-2 4-3 0-4-2-1-2-1 0-1 3-1 3-5 0-5-1 1-2 1-3 1-3 1-2-3 1-5 6-3 9-6 9-8 0-3 2-4 5-3 2 0 3 0 3-1 0-1 1 0 2 1 0 1 2 2 3 2 2 0 2-2 0-5-1-1-2-2-1-2 0 1 2 0 4-1 1 0 3-1 4-1 1 1 3 0 3-1 2-2 2-2 2 1 1 3 5 3 6 0 0-2 1-3 4-2 3 0 3 0 5 5 3 8 3 11 2 9-2-2-4-1-3 2 0 2 0 3-1 3 0 0-1-1 0-1 0-1 0-2-1-2-2 0-4 3-2 4 2 3 1 4-2 4-2 0-3 0-2 1 0 1 0 4 0 6-1 2-1 3-2 2-2-2-4 1-4 5 1 2 1 3 0 3 0-1-1 1-3 3-2 3-2 4-1 5 1 2 1 3 0 4-1 1-1 3-1 4 1 0 1 1 0 1-1 0-1 1-1 2 1 1 0 2 0 3-1 2-2 2-5 0-5-2-6-1-2 3 2 1 3 3 3 4 0 1-1 1-2-1-1-1-2-2-2-1 0 1-1 3-3 6-3 4-4 6-1 8 1 1 1 1 3 0 0-1 1-1 2 0 1 0 1 2 0 2-3-1-2 5 1 10 4 6 4 8 1 7-4 0-4 0 1 3 3 2 4 5 2 5-2 0-3 3-5 10-1 2-2 5-4 6l-2 1 2 2c3 4 5 9 3 11-2 1-4 1-6 0-1-1-3-2-4-2-1 0-1 0 0 3 1 1 2 3 2 4 0 1 1 1 5-1 2 0 5-1 5-1 2 1 3 4 1 4 0 0-1-1 0-1 0-1 0-2-2-2-2 0-3 2-2 7 0 2 1 3 2 3 3-1 3-1 0 4-1 3-2 7-3 10 0 3 0 5-2 6-2 1-3 4-1 4 2 0 1 2-2 2-2 1-4 3-2 3 2 0 3 3 1 4-1 0-1 1-1 2 1 1 0 2-1 1-3 0-2 1 3 7 5 6 6 11 4 11-1 0-2-1-3-1-1-1-1-1 0 2 1 2 1 6 1 8-1 9-1 11 5 11 6 1 8 0 5-1-1-2-1-5 1-5 3 1 3 4 2 9-2 5-2 6-1 7 2 1 2 1 0 2-1 1-1 1 1 2 2 0 2 1 2 3-1 2-1 4-1 4-1 1-8-6-8-8 0-2 0-2-3-1-2 1-3 2-2 3 0 1 0 2-1 2-3 1-2 4 0 4 2 0 9 5 9 6 0 1 1 3 2 4 2 3 2 4 1 7 0 2-1 5-1 6 0 3-1 4-3 2-3-3-5-2-4 1 0 2 0 2-2 2-2 0-4-2-4-3 0-1 2-1 4-2 5-1 6-4 2-6-2 0-4-2-5-4-1-1-3-3-4-2-5 1-4 1-2 3 2 2 2 4 2 9 0 7 1 8 6 10 2 0 4 1 5 2 1 1 2 1 3 1 1-2 4-2 5 0 1 0 1 3 1 5 0 5 0 5 2 5 3-2 7-2 8 0 1 1 2 1 6-2 2-1 4-2 5-2 0 1 0 1-1 1 0 0-1 1-1 2 0 2 1 1 6-2 3-1 5-2 6-2 0 1 0 1-1 2-2 0-3 4-1 5 1 0 2 0 3-1 2-1 2-1 1-3-1-1-1-2 0-3 1-1 1 0 2 1l2 3 3-2c5-3 5-3 4-1 0 0-1 1-2 1-1 0-1 0 0 2 1 2 1 2 4 1 4-1 5-1 2 2-2 3-2 3 0 4 3 3 11 2 20-2 7-4 8-4 6-5-1-1-2-2-2-3 1-3 6-6 13-6 4-1 5-1 5 1 0 1-1 1-2 1-2-1-4-1-5 0-3 1-6 8-6 12 0 4 3 5 5 2 5-7 6-8 10-9 4-1 5-1 7 1 2 1 4 2 4 2 0-1 1-4 1-7 0-3 1-5 2-6 1 0 1 1 1 2 0 1 1 2 2 2 1 1 1 2-1 6-2 3-3 5-3 6 2 2 4 1 6-2 3-4 8-9 6-7-1 2-1 2 1 2 2 0 5-2 9-7 4-4 7-7 8-7 0 1 0 2-1 3-2 3-1 4 1 4 1-1 4-1 6-1 3-1 3 0 3 1-1 2 0 2 1 2 1-1 2-1 2-1 1 0 1-1 0-1 0-1 0-3 1-5 0-2 0-2 2-1 1 2 1 2 0 4-1 2-1 2 0 2 4-2 10-6 16-12 6-5 7-6 8-4 1 1 0 2-3 6-4 4-5 8-2 7 0-1 1 0 1 0 0 1 4 1 5 0 0-1 0-2 1-4 1-11 2-13 3-14 3-2 5 0 5 3 0 1 1 2 2 2 3 0 6-1 6-3 1-1 1-1-1-1-2 1-2 1 1-2 1-2 3-3 3-2 1 0 4-3 4-5 0-1 0-1 2 0 2 2 1 3-1 3-3 0-5 3-3 4 1 1 2 1 3 0 2-1 2 0-1 5-3 5-6 8-8 5 0-1-1-1-3 0-3 1-7 8-6 9 0 2-7 4-24 10-3 1-5 2-5 3 0 1 0 2-1 3 0 0-1 0-1-1 0 0-1-1-1-1-2 0-2 1-2 3 1 3-2 4-5 2l-2-2 2-2c1-2 2-3 1-4 0-1-3 1-7 5-5 4-6 6-6 8 1 2 0 2-5 3-2 0-8 3-12 5-10 5-17 7-17 6 0-1 0-1-1 0-2 2-13 1-15-1-1-2-1-2-3 0-2 1-3 2-4 2 0-1-1 0-2 0-1 1-5 3-9 3-4 1-9 3-10 4-3 1-4 1-5-2 0-1-2 0-3 1-3 3-7 4-13 4-3 0-4 0-4-2 0-1 0-2-1-1-1 0-3 0-4 0-2 0-5 1-8 2-6 2-10 3-10 2z m75-182c2-8 5-12 8-11 2 0 4-3 8-11 2-7 2-6 1-6-1 0-2 0-2 0 0-1 3-4 6-7 4-4 10-11 15-16 6-9 8-11 7-14 0-3 1-4 3-2 1 2 3-2 1-4-1-3 1-6 4-6 2 0 4-1 4 0 0 0 0 1-1 3-1 2-1 4 0 4 1 2 1 2 5-8 4-9 5-14 3-16-1-1 0-2 3-6 5-5 10-13 18-29 3-5 6-10 6-9 1 0 1-1 1-2 0-1 2-3 4-6 3-2 5-5 6-6 1-2 2-2 4-2 3 1 3 1 4-3 0-3 1-6 2-6 0-1 1-2 1-3 0-1 2-6 5-12 3-6 6-12 7-15 1-3 2-4 4-3 3 0 3 0 2-2 0-4 2-13 6-19 3-4 4-5 5-4 2 1 2 1 2-1 0-2 0-3 1-3 2 0 4-5 6-14 2-9 4-13 5-9 1 6 5 1 9-11 1-3 3-6 4-7 0 0 1-2 1-3 0-2 1-3 2-2 1 0 2-1 4-6 1-3 2-7 2-8-1-1 0-2 1-1 1 0 2-1 3-7 0-3 1-6 1-8 1-3 1-3 3-2 2 3 3 1 2-1-2-2-2-3-1-5 1-2 1-3-1-5-1-2-1-2 1-3 2-2 2-2 1-3-1-2-1-2 1-3 1-1 2-2 2-7 0-4 0-5 1-5 1 0 2-5 0-5-1-1 3-10 4-10 1 0 1 1 1 2-2 3-2 7-1 7 1 0 6-4 8-6 2-1 3-9 4-17 0-2 0-5 1-6 1-1 1-2-2-3-1-1 1-7 2-7 0 0 1 1 3 3 1 1 2 2 3 2 1-1 1-8 0-16-1-5-1-6 0-6 2 0 4-2 4-8 1-2 2-5 3-7 1-2 1-2 2-1 1 2 2 1 4-5 4-6 6-12 5-12 0 0-2 3-4 6-2 3-5 7-7 9l-3 3 1-4c1-1 3-7 4-13 2-11 5-19 6-14 2 3 3 1 3-4 1-4 0-6 0-6-1-1 0-2 3-3 2 0 4-1 4-1 0-1 0-3-1-7-1-5-1-6 2-12 5-9 6-15 4-30-1-13-1-22 2-25 1 0 1-1 1-2-1 0 0-1 1-3 2-2 2-2 1-7-1-3-2-6-3-7 0-2 4-1 5 1 2 1 2 1 2-1 0-1-1-4-1-6-2-5-2-6-1-6 0 1 1 0 0-1 0-1 0-2 1-2 1 0 2-2 2-7 0-4-1-8-1-10-1-1-1-2 0-1 2 0 2 0 1-3-1-2-1-2 0-2 2 2 0-13-3-20 0-2 0-2 1-1 1 0 1 0 1-2-1-1 0-2 0-2 2 0 2-25 1-30-1-2-1-2 0-1 2 2 2 2 2 0 0-2 0-3-1-4 0 0-1-1-1-1 0-1 1-1 2 0 2 2 2 2 5 0 3-3 2-5-2-5-3 0-4-1-1-3 0-1 1-2 1-3 0-2-2-2-4 0l-3 2-1-2c0-2 1-5 3-8 2-5 3-10 2-15-1-3-1-3 2-4 2-1 3-2 2-4 0-1 0-1 2 1 3 2 3 2 5 1 2-2 1-5-3-6-2-1-3-2-2-2 1-1 2-2 2-4 1-3 2-4 4-3 1 0 2-1 1-4l0-3 2 3c3 3 7 2 6-1-1-1-1-3-2-4 0-1 0-2 1-2 1 0 2-1 3-2 1 0 2-1 2-1 1 0 12 14 13 17 1 0 0 1-1 0-4 0-4 2-1 5 2 3 3 7 1 5 0 0-1-1-1-2 0-1 0-2-1-2-2 1-2 5 1 8 3 3 2 6-1 7l-2 0 2 3c1 1 2 3 2 5 0 1 0 4 1 6 1 3 1 3-1 2-3-2-4 3-1 8 2 4 3 5 1 5 0-1-1 2-2 6-1 6-1 6 1 8 2 2 2 3 1 6 0 1 0 4 1 5 1 2 1 2 0 3-1 1-1 1 0 2 1 1 1 3 1 5-1 4-1 4-4 3-2-1-4-2-5-2-1-1-1 0-1 2 0 1 1 3 4 4 2 1 3 3 3 4 0 3-1 3-3 0-1-2-1-2-1 0 0 2-1 6-2 9-3 7-4 9-1 12 1 1 1 1 3-1 2-1 2-1 3 0 1 2 1 3 0 2-2 0-2 1-2 2 0 5 0 8 3 14 3 7 4 12 2 12 0 0-1 0-1-1-1 0-1-1-2-1-2 0-1 2 2 5 3 3 3 4 3 7 0 2 0 2-1 1-2-1-2-1-2 0 0 1 0 2 1 3 1 0 0 1-1 2-1 1-2 5-3 9-1 5-2 7-4 10l-3 3 1 3c2 4 3 14 1 16-2 2-4 1-6-1-3-4-4-4-3 1 0 2 0 5 0 6 0 2 1 3 5 0 2 0 5-1 5-1 2 1 3 5 1 6-1 0-1-1 0-2 0-2 0-3-1-3-3 0-4 2-5 9 0 6 0 6 2 6 1-1 2 0 2 0 0 0-2 4-4 7-2 4-4 9-5 11 0 2-1 4-1 3-1 0-1 1-1 2 0 2-1 4-3 5-3 2-3 3-3 6 1 3 1 3-2 3-3 0-6 3-3 4 2 0 1 2-1 5-1 1-2 2-2 3 0 2 0 2-2 1-2-1-2-1-2 1 3 12 4 21 3 24-1 4-2 5-4 0l-1-3 0 4c0 3-1 9-3 14-6 14-6 15-1 18 5 3 9 3 6-1-1 0-1-1 0-3 2-4 3-3 4 1 0 2-1 5-4 10-3 4-5 7-5 9 1 1 0 2-1 2-2 0-2 1 0 4 1 2 1 2-2 6-3 5-3 5-5-3-1-4-1-6 0-7 2-3 2-4-2-3-2 1-3 2-3 3 0 1-1 3-3 3-2 1-5 4-4 4 5 2 7 8 6 19 0 6-1 7-5 13-3 4-5 8-5 9 0 1-1 0-2-3-2-5-4-5-4-1 0 2-1 3-3 3-2 0-3-2-2-5 1-2 2-2 5-2 4 0 5 0 6-2 0-1-1-4-1-5-1-2-2-5-2-8 0-2 0-4-1-4-1 0-2 0-4-1-2 0-2 0-1 4 0 4 0 6-3 11-6 11-6 13 0 19 1 2 2 4 2 5 0 2 0 2 1 1 2-1 5 3 5 6 0 1 0 1-1 0-1-3-3-1-3 2 0 2 0 2-2 1-1-2-1-2-3 0 0 1-1 2-1 3 1 0 1 1 0 1 0 0-2 1-3 2-2 2-5 3-7 3-5 0-6 1-4 3 1 2 2 5 2 12 1 14 1 17-3 17-2 1-4 0-6-1-2-1-2-1-3 0-1 1-1 3-1 4 0 2 0 3-1 3 0 0-1 1-1 3 0 2 0 3-1 3-3 0-5 3-5 9-1 6-3 10-3 6 0-1 0-2-1-2-1 0-2 4-4 14-2 6-2 6-2 2 0-3 0-4-2-4-2 0-4 3-4 6 0 2 0 3 2 3 4-1 3 2 0 3-1 0-3 1-3 0-1 0-1 3-2 7-1 6-2 8-2 6-1-1-1-2 0-3 1-2 1-2-1-2-2 0-3 2-5 6l-2 5-1-5 0-5-4 2c-5 4-9 11-15 25-2 6-4 12-5 13l-1 3 2-3c3-2 6-2 6 1 0 2-5 12-8 15-1 1-2 3-3 5-2 3-4 5-6 4 0-1 1-2 3-4 5-4 6-12 4-20-2-8-8-4-8 6 0 10-5 19-13 22-2 1-4 2-4 2 0 1 1 3 3 6 2 4 3 7 1 9-1 1-2 1-2-1-1-2-1-2-3-1-2 1-2 1-2-6 0-5 0-7-1-7-3 0-5 4-6 12 0 5-1 8-1 9 0 0 0-1-1-2-1-2-1-2-3 2-2 3-4 9-5 15-2 5-4 10-4 11-2 3-3 1-2-2 2-5 0-5-4-1-2 3-4 5-5 5 0 0-1 1-2 2-1 1-1 1-2-1 0-1-1-1-3 2-2 2-3 3-2 2 2-1 2-1 2 1 2 4 1 6-1 6-2 1-3 0-2-2 0-2 0-3-1-3-1 1-9 15-15 27-5 11-5 11-6 9-2-2-2-2 0-6 3-5 5-11 3-12 0-1-1 0-2 1 0 0-1 1-2 1-1-1-2 0-3 0-1 2-2 9-1 9 0 0 1 4 1 8 0 7 0 8-2 10-3 3-5 3-6-1l-1-2-3 3c-5 4-6 5-6 7 0 1 1 1 2 0 3-3 3-2-1 3-2 5-2 5-5 4-1-1-2-1-4 0-2 2-2 2 0-5z" horiz-adv-x="1000" />

<glyph glyph-name="arr-at-up" unicode="&#xe823;" d="M488 546c-20-2-38-10-50-20-2-2-89-78-193-169-130-114-189-166-191-169-6-9-5-20 3-28 7-7 16-9 25-5 2 1 89 77 194 169 105 92 193 169 196 170 8 5 17 7 28 7 11 0 20-2 29-7 2-1 90-78 195-170 105-92 192-168 194-169 9-4 18-2 25 5 8 8 9 19 3 28-2 3-61 55-191 169-104 91-191 167-193 169-10 8-24 15-37 18-8 2-31 3-37 2z" horiz-adv-x="1000" />

<glyph glyph-name="arr-at-right" unicode="&#xe824;" d="M318 799c-6-2-12-10-14-15-1-5-1-11 1-16 1-2 77-89 169-194 92-105 169-193 170-195 10-17 10-41 0-57-1-3-78-91-170-196-92-105-168-192-169-194-4-9-2-18 5-25 8-8 19-9 28-3 3 2 55 61 169 191 91 104 167 191 169 193 8 10 15 25 19 40 1 5 2 11 2 22 0 27-8 47-26 68-4 5-80 92-169 193-141 161-162 184-166 187-6 2-12 3-18 1z" horiz-adv-x="1000" />

<glyph glyph-name="arr-at-left" unicode="&#xe825;" d="M664 798c-4-3-24-26-166-187-89-101-165-188-169-193-13-15-20-28-24-45-2-12-2-34 0-45 4-15 11-30 19-40 2-2 78-89 169-193 114-130 166-189 170-191 9-6 19-5 27 3 7 7 9 16 5 25-1 2-77 89-169 194-92 105-168 193-170 196-5 8-7 17-7 28 0 11 2 20 7 29 2 2 78 90 170 195 92 105 168 192 169 194 4 9 2 18-5 25-7 7-17 9-26 5z" horiz-adv-x="1000" />

<glyph glyph-name="arr-at-down" unicode="&#xe826;" d="M65 546c-6-2-13-10-14-15-2-6-1-13 3-18 2-4 61-56 191-170 104-91 191-167 193-169 10-8 25-15 40-19 11-2 33-2 45 0 14 4 29 11 39 19 2 2 89 78 193 169 130 114 189 166 191 170 6 9 5 19-3 27-7 7-16 9-25 5-2-1-89-77-194-169-105-92-193-168-195-170-17-10-41-10-57 0-3 2-91 78-196 170-105 92-192 168-194 169-5 2-13 2-17 1z" horiz-adv-x="1000" />

<glyph glyph-name="kids" unicode="&#xe827;" d="M265 649c-14-2-62-12-71-15-37-12-66-38-84-75-7-15-11-29-16-52-2-11-5-23-7-27-4-10-10-19-20-28-15-14-18-22-16-43 2-20 7-32 18-43 9-9 21-15 42-20 15-3 18-5 22-14 3-9 6-14 11-20 8-8 15-12 61-36 18-9 35-13 49-12 3 0 13 0 21 0 27 0 46 4 67 16 25 13 46 31 56 47 8 13 12 19 16 20 2 1 8 3 13 3 10 2 16 4 21 8l3 2 6-6c10-9 25-18 37-21 7-2 25-11 30-15 1-1 4-4 5-7 5-10 12-20 21-28 18-18 40-26 86-34 25-4 38-5 54-2 29 5 53 18 75 41 19 19 25 25 34 31 12 8 17 10 31 16 19 7 31 17 38 32 5 8 7 17 8 30 0 8 0 12-1 17-2 5-3 6-12 16-13 12-19 20-17 21 4 3 6 3 18 3 12 1 13 0 18-2 4-2 7-5 12-10 3-4 13-14 21-22 10-10 16-16 17-20 2-3 3-5 4-5 0 0 3 3 6 6 5 5 6 7 6 10 0 3 1 15 1 28 0 13 0 26 0 30 1 8-3 13-15 25-11 12-14 13-29 12-13 0-19 2-25 7l-3 3-14-6c-8-4-17-8-20-9-6-1-7-1-10 1-5 2-7 7-10 19-7 31-22 54-50 75-22 17-47 29-73 34-13 3-37 4-50 2-5-1-17-3-27-4-22-4-35-7-46-12-9-5-13-8-32-25-35-33-51-58-57-90-2-12-3-15-7-14-1 1-7 6-13 11-13 13-19 17-26 18-4 1-5 2-6 4 0 1-2 8-4 14-4 16-15 37-30 58-10 15-12 18-18 23-17 13-50 26-82 32-12 3-28 3-37 2z m35-97c1-3 22-36 31-47 10-14 18-22 30-32l10-9 0-26c0-14 0-28 1-30 0-3 2-7 5-10l3-6 6 6c4 3 8 9 11 14 8 14 12 20 17 25 5 4 6 4 9 4 8-2 17-7 21-12 5-7 6-10 3-19-3-7-3-11-4-21-1-5-1-6-5-7-4-3-9-1-14 6-2 3-5 7-6 7-4 3-8 2-11-1-4-4-18-25-24-36-21-38-50-57-97-62-28-4-53-1-74 8-27 11-56 40-71 72-10 20-10 22-13 23-4 2-6 1-19-8-6-5-12-8-13-8-2 0-19 28-18 30 5 8 12 16 13 17 2 0 7 0 13 1 41 2 73 18 115 57 14 14 27 25 28 25 0 0 1-8 2-18l1-17-3-4c-4-4-5-8-3-10 1 0 3-1 5-1 4-1 4-1 6 4 2 3 7 10 12 16 11 13 14 18 15 29 1 9 2 14 8 27 3 8 7 15 9 15 0 0 1-1 1-2z m394-20c1-4 5-10 22-31 11-14 24-30 29-35 27-31 44-41 74-43 6-1 10-2 13-3 9-5 13-15 12-33-1-22-12-26-37-14-5 3-11 5-12 5-3-1-5-6-4-13 0-5 0-7-3-11-1-2-8-10-14-16-7-7-16-16-20-21-16-20-38-33-66-38-21-4-55-4-71 1-15 5-24 11-47 34-21 20-31 33-41 52-2 5-6 10-8 12-6 7-10 6-23-8-3-3-7-6-8-6-3 0-9 5-11 11l-3 5 2 3c2 3 2 7 3 16 1 10 1 11 3 14 2 2 5 5 8 7l4 3 9-4 8-4 6 3c4 1 13 5 22 8 24 9 36 16 44 26 4 5 17 16 36 29 13 10 16 12 19 12 2 0 3-1 4-4 1-4 1-5-5-19-5-14-5-15-4-19 1-3 2-4 4-4 4 0 21 17 28 29 6 10 8 18 9 33 1 15 1 16 10 24 3 3 6 5 6 5 0 0 1-2 2-6z m-367-102c-3-1-13-6-13-7 0-1 20-22 21-22 1 0 3 2 6 4l4 3-1 8c0 5 0 10-1 11-2 3-10 5-16 3z m-135-2c-2-1-6-4-9-7l-5-6 9-9c5-6 10-10 11-10 0 0 5 4 10 9l9 9-6 5c-11 10-15 12-19 9z m388-19c-10-5-10-3 2-16l11-11 4 4 5 4 0 9c0 8-1 9-3 11-3 3-13 3-19-1z m135 0c-3-2-6-3-6-4-1 0 4-6 10-12l11-11 4 4c5 4 6 6 4 16 0 8-3 10-11 10-5 0-7-1-12-3z m-550-173c-4-4-13-10-21-15-20-13-30-23-33-36-1-4-3-6-8-11-3-4-7-8-8-10-2-3-3-8-1-11 2-2-1-10-12-44-13-37-17-51-15-53 1-1 40-1 187-1 197 1 192 1 200 5 1 1 2 1 3 0 1-2 10-4 24-5 19-3 22-3 73-4 35-1 63-1 125 0 44 1 82 1 85 2 3 0 21 0 41 1 19 0 38 1 41 1 5 0 6 1 7 3 5 11-12 57-37 101-13 24-15 26-29 37-7 6-17 13-21 18-4 4-9 8-11 8-3 2-8 3-11 1-1-1-9-8-17-16-27-28-45-36-71-35-12 1-18 3-29 8-10 5-18 12-34 28-19 19-21 20-34 11-3-2-9-5-13-7-16-9-41-36-56-61-10-17-26-53-26-60 0-1 0-2-1-2 0 0-1 1-1 2 0 5-11 42-17 58-13 32-30 53-56 67-4 2-11 7-16 12-11 8-17 12-21 12-5 0-13-6-22-16-11-12-28-27-33-30-8-4-39-5-54-2-15 3-27 11-37 26-5 8-9 12-18 19-5 5-7 5-11 5-5 0-6 0-12-6z" horiz-adv-x="1000" />

<glyph glyph-name="adults" unicode="&#xe828;" d="M679 605c-2 0-4-5-4-9 0-1 0-4-1-7-1-6-3-6-8-2-4 3-9 4-12 2 0 0-1-1-1-3-2-5-7-9-18-14-20-10-43-31-51-50-3-7-6-19-9-39-4-31-4-33-17-54-5-8-9-17-9-19 0-5 7-28 10-36 4-7 6-10 13-17 5-5 13-13 17-16 11-10 21-21 24-29 2-3 4-9 6-13 5-11 13-18 37-31 13-7 20-10 43-15 16-3 18-3 29-3 17 1 31 6 47 17 12 8 24 20 41 43 20 28 28 37 39 48 14 15 16 20 16 49 1 17 0 18-2 23-2 4-5 8-10 12-4 4-8 8-9 9 0 2-1 8-2 14-3 40-22 76-52 96-13 8-20 12-54 24-11 4-28 10-36 14-13 6-17 7-21 7-2 0-5 0-6-1z m56-94c25-3 47-13 54-24 1-2 3-8 4-13 1-5 3-16 5-23 3-12 3-17 3-29l1-15 2-3c2-1 4-2 5-2 2 0 6 4 7 9 3 9 11 16 18 16 9 0 18-10 18-20 0-4-7-23-11-31-2-2-5-5-10-8-16-11-18-12-20-16-2-2-4-7-5-11-1-6-4-11-8-18-11-17-20-26-35-36-15-10-25-13-38-11-5 0-14 0-20 0-19 0-34 5-49 17-14 12-27 28-36 48-3 5-6 11-7 12-1 1-6 4-10 6-9 4-16 12-21 23-10 20-11 22-11 27 1 5 5 12 9 14 5 3 15 5 19 3 3-2 5-5 5-9 0-2 0-4 1-5 1-2 11-7 12-7 1 1 3 3 5 6 4 6 4 6 5 18 1 7 1 16 0 24-1 19 0 24 10 34 13 13 31 20 61 24 6 1 29 1 37 0z m-465 86c-17-2-34-7-47-13-32-15-57-47-75-93-2-6-8-22-12-35-9-27-11-37-13-62-3-36-3-42-4-51-1-6-2-16-3-22-3-19-4-34-3-65 1-35 2-39 4-41 8-8 46 10 77 37 25 23 26 23 39 11 8-7 13-9 25-10 15-1 19-3 25-7 2-2 3-2 6 0 3 0 9 2 15 4 5 1 14 4 20 6 13 4 24 5 34 3 15-2 16-3 54-28 20-13 37-24 38-24 1 0 2 1 3 2 0 2 0 34 0 73l-1 71-2 10c-2 7-3 17-4 28-3 33-6 47-11 70-6 23-14 43-22 60-12 25-24 38-42 47-23 10-35 16-42 20-13 7-21 9-40 10-9 0-18 0-19-1z m80-138c2-1 7-6 13-11 16-16 25-21 42-24 7-1 9-2 12-4 3-4 5-10 5-16-2-7-11-24-17-30-1-2-6-6-10-9-9-6-16-16-20-27-7-18-17-30-33-44-18-15-28-19-52-20-14 0-17 0-25 2-11 3-19 7-32 17-18 16-30 31-38 47-4 10-10 17-18 22-10 6-14 9-18 16-4 8-6 17-6 28 0 16 3 19 23 19 13 0 22-1 41-5 24-5 41-3 72 10 13 5 18 8 30 16 21 15 25 17 31 13z m246-204c-11-7-28-18-38-25-36-23-60-43-70-58-2-2-3-5-3-5-1 0-7 4-15 9-8 5-26 16-41 25-31 18-47 28-59 37-10 7-12 8-15 6-3-2-3-2-18-50-7-22-16-52-21-66-11-33-11-32-7-32 2-1 51-1 109-1l106 1 14 3c21 5 30 5 51 0 16-5 20-5 26 0 7 4 12 5 30 5 31 0 35 4 25 25-7 13-10 22-17 46-8 23-17 50-21 62-8 22-9 26-11 28-1 1-3 2-4 2-2 0-11-5-21-12z m214 4c-2-2-13-21-19-34-6-12-9-21-15-43-6-22-8-27-21-54-11-22-12-26-8-30 2-1 4-1 12-1 11 0 27 2 41 5 14 3 28 4 46 3 37-2 81-1 101 3l3 0 0 13c0 19-2 27-8 40-12 24-24 39-48 55-21 13-77 44-81 44 0 0-1-1-3-1z m-150-16c-1 0-1-9-1-18 0-15 0-18 1-22 3-9 8-18 9-18 1 0 5 1 10 4 22 13 44 13 67 1 6-3 11-5 11-5 2 0 9 12 10 19 2 7 3 36 1 38-1 1-2 1-10-2-42-15-67-15-91 1-5 3-6 4-7 2z m-452-4c-5-1-20-11-38-24-7-5-16-11-22-14-5-2-14-6-20-9-25-12-63-43-72-58-7-12-8-30-2-36l3-3 98 0c70 0 99 0 101 1 5 2 8 5 9 9 0 3 0 4-10 31-10 26-18 50-26 77-4 13-8 24-9 25-2 3-7 3-12 1z" horiz-adv-x="1000" />

<glyph glyph-name="download" unicode="&#xe829;" d="M572 424h-126v206c0 18-14 33-32 33h-126c-18 0-33-15-33-33v-206h-126c-17 0-23-10-10-23l209-208c6-6 14-9 23-9s17 3 23 9l208 208c12 13 8 23-10 23z m-572-147v-223c0-10 5-15 16-15h668c10 0 16 5 16 15v223c0 10-8 16-16 16h-64c-9 0-16-7-16-16v-142h-508v142c0 10-7 16-16 16h-64c-9 0-16-7-16-16z" horiz-adv-x="699.2" />

<glyph glyph-name="album" unicode="&#xe82a;" d="M79 701h424c44 0 79-36 79-79v-464c0-42-34-77-76-79v52c13 2 23 14 23 27v464c0 13-12 25-26 25h-424c-14 0-26-12-26-25 5 1 12 1 17 1 5 0 9 0 14 0l317-48c43-8 75-47 75-90v-413c0-41-30-72-70-72-4 0-9 0-14 1l-317 48c-42 8-75 47-75 89v484c0 43 36 79 79 79z m16-249l278-41 7 47-278 41z m58-42l-4-30 155-23 4 29z" horiz-adv-x="581.1" />

<glyph glyph-name="plusicon" unicode="&#xe82c;" d="M428 427h272v-155h-272v-271h-155v271h-273v155h273v273h155v-273z" horiz-adv-x="699.2" />

<glyph glyph-name="minus" unicode="&#xe82d;" d="M0 427h740v-154h-740v154z" horiz-adv-x="739.3" />

<glyph glyph-name="woman" unicode="&#xe82e;" d="M484 799c-46-3-96-20-130-45-17-11-41-37-56-59-18-24-34-58-49-98-10-27-31-91-33-103-5-20-6-33-10-89-3-48-6-74-11-104-2-10-3-22-4-27-2-17-2-51 0-101 2-45 2-50 4-54 1-3 3-6 5-7 4-2 13-2 25 2 38 13 75 36 120 77 18 16 20 17 27 20 11 6 19 3 35-11 14-13 18-15 46-18 22-2 30-4 38-10l7-5 25 7c14 4 33 10 42 13 21 6 27 7 45 7 21 0 38-3 52-10 3-2 33-21 67-43 44-30 61-41 63-41 2 0 3 1 4 2 1 2 1 55 1 126l0 124-3 14c-1 7-4 19-5 26-2 7-4 21-5 37-4 53-8 81-18 118-13 53-28 95-47 129-22 38-42 57-81 74-23 11-41 20-53 27-14 8-21 11-32 15-19 6-44 9-69 7z m129-247c2-1 12-10 21-19 9-9 21-19 26-22 16-13 32-19 52-22 16-3 23-7 27-18 2-3 2-7 2-12 0-10-1-16-8-28-12-24-21-35-33-44-12-8-27-24-33-34-3-4-7-14-11-22-10-26-19-39-40-60-36-36-59-48-101-51-22-2-47 1-66 7-19 6-40 22-68 50-22 22-33 37-44 62-10 20-18 30-35 39-17 9-25 18-32 32-8 16-11 44-7 64 0 4 6 11 11 13 4 2 6 3 30 3 27 0 33-1 63-8 25-5 31-6 46-6 29 0 55 7 99 26 20 8 27 12 45 26 17 12 35 24 40 26 5 2 12 1 16-2z m9-386c-1-1-4-3-5-5-1-2-6-16-10-32-28-94-63-202-70-218-3-6-4-8-1-9 1-1 68-1 188-1 181 0 186 0 189 2 5 2 7 7 8 20 3 25-3 43-20 62-14 15-54 49-67 56-3 2-12 8-20 13-9 5-35 21-60 35-61 36-79 47-108 68-15 12-18 13-24 9z m-261-7c-11-5-27-14-56-36-31-23-47-32-66-40-35-14-70-36-108-69-18-16-38-36-42-43-9-14-12-30-10-48 1-13 3-18 8-20 3-2 8-2 180-2 104 0 177 0 179 1 10 3 16 11 15 20 0 4-4 15-11 33-24 63-43 120-58 173-6 22-8 26-12 29-4 3-14 4-19 2z" horiz-adv-x="1000" />

<glyph glyph-name="boy" unicode="&#xe82f;" d="M509 800c0-1-3-1-7-1-7-1-9-1-17-3-9-1-9-1-31-6-11-2-22-4-23-5-2 0-5 0-6 0-5-1-31-8-37-11-4-1-8-2-8-2-1 0-2-1-3-1 0-1-4-2-9-4-22-10-54-33-67-50-4-4-7-8-7-8-2-2-13-18-20-28-13-21-27-59-31-86-1-5-2-10-2-11-1-2-1-6-2-11-6-31-15-50-33-66-23-22-26-26-30-41-2-9-2-14 0-32 1-17 7-34 14-47 12-20 35-35 66-43 5-1 10-2 11-2 20-4 28-10 33-23 5-18 17-33 35-44 12-8 12-8 32-18 8-4 18-9 22-11 3-2 9-5 13-8 15-8 38-17 54-20 8-2 11-2 41-1 1 0 10 0 19 0 21-1 37 1 60 7 4 2 12 5 16 6 2 1 4 2 5 2 0 0 8 3 14 6 9 5 27 15 32 19 2 2 8 6 17 13 2 1 4 3 6 5 1 1 3 3 5 4 4 3 17 16 21 21 1 2 4 5 5 7 3 7 15 25 19 29 3 4 11 9 12 8 0-1 2 0 4 0 3 1 5 1 6 2 13 2 25 7 38 13 27 14 42 36 48 71 1 6 1 7 2 19 1 19-5 35-19 48-20 19-23 22-28 30-3 5-7 13-9 17-3 8-8 28-10 37 0 2 0 5-1 6 0 0 0 2 0 4-1 2-2 7-3 11 0 4-2 10-2 13-1 8-5 19-8 25-1 1-1 3-1 3 0 1-11 25-14 30-1 1-3 4-5 8-2 3-4 6-4 7 0 0-1 2-2 3-1 2-3 4-3 5-1 1-3 4-5 7-1 3-3 6-4 7-1 1-2 2-2 2 0 1-3 6-10 15 0 0-2 3-3 5-3 4-10 12-11 12-1 0-2 1-3 2-7 7-31 19-52 28-12 5-44 15-46 15 0 0-2 0-3 1-2 1-7 2-10 3-4 1-8 1-9 2-6 1-13 2-16 3-3 0-6 0-7 1-6 0-26 1-27 1z m43-146c1-5 4-11 19-33 9-14 17-25 18-26 2-4 17-24 18-26 1 0 3-2 4-4 5-7 32-32 42-40 7-6 8-7 7-11-1-5-1-73 0-80 1-3 2-7 4-10 3-6 8-13 9-13 1 0 4 3 8 7 7 6 15 17 17 23 1 1 2 3 3 6 2 2 4 5 5 8 6 10 11 16 21 26 2 1 8 4 8 3 1 0 3 0 5-1 3 0 6-1 8-2 2 0 4-1 5-1 3 0 17-15 24-25 4-5 7-10 8-11 1-1-1-5-13-25l-14-23-7 5c-4 3-10 7-13 9-3 2-7 5-8 6-2 2-9 2-14 0-3-1-9-8-9-9 0-1-1-2-2-4-2-3-22-33-24-36 0-2-3-6-5-10-3-6-6-12-12-20-1-1-2-3-3-3 0-1-1-2-2-3-2-5-15-19-22-24-2-2-5-4-7-6-6-5-19-13-28-18-2 0-5-2-7-3-12-6-38-13-53-15-2 0-6 0-7-1-12-1-48-2-62-1-34 4-60 13-84 30-16 11-38 32-48 47-2 2-4 4-5 6-4 4-17 25-23 35-6 13-13 28-13 30 0 0-2 3-5 6-3 4-5 5-7 5-3 0-14-5-17-8-1-1-8-6-22-16-3-2-6-4-7-4 0 0-7 10-14 23l-14 23 9 12c12 18 12 17 26 17 14 0 24 1 38 4 1 0 3 0 5 0 4 1 11 3 20 6 23 8 43 19 68 36 6 4 19 14 25 20 1 1 4 4 7 6 5 5 6 6 25 24 6 6 14 12 16 14 5 4 10 8 14 12 2 2 4 3 4 1 0-1 2-13 3-22 0-4 0-8 1-8 0 0 0-6 1-12l0-11-5-6c-6-5-6-5-6-9 1-2 2-4 3-5 2-1 11-3 12-2 0 0 2 3 4 6 2 5 8 14 11 17 1 1 4 5 7 8 3 3 6 7 7 7 2 3 9 14 11 18 3 6 5 19 5 23-1 3 3 19 7 28 2 4 5 11 6 14 3 7 10 18 12 18 1 0 1-1 2-2z m38-187c-3-1-7-3-9-5-3-1-5-3-7-4-2-1-2-1 3-6 3-4 10-11 16-18 13-13 11-12 21-3l5 4 0 9c0 15-3 22-9 24-6 1-15 1-20-1z m-201-2c-4-2-7-4-17-15l-5-5 15-15 14-15 8 8c5 4 11 10 13 12 3 3 6 5 7 6l2 2-6 5c-12 12-18 17-23 18-5 1-5 1-8-1z m-30-282c-1 0-2-1-3-2-9-10-21-19-38-29-7-4-8-5-14-9-3-2-7-4-9-5-1-2-3-3-4-4-1-1-4-3-6-6-8-7-14-17-19-32-2-7-4-9-9-14-3-3-7-6-8-7-2-1-3-3-4-4 0-2-1-3-2-3-1-1-3-5-4-11-1-4 0-5 1-6 4-2 0-18-13-56-24-66-31-91-27-94 1-1 51-1 149 0 81 0 208 0 281 0 73 1 140 1 148 1 7 1 20 1 27 1 12 0 14 1 16 2 4 4 5 15 1 31-1 4-2 7-2 8-1 4-11 32-13 36-1 3-4 9-6 14-12 29-36 73-49 88-2 3-5 7-7 10-2 3-5 7-6 8-2 2-3 3-3 4 0 1-19 20-20 20-1 0-3 2-5 3-2 2-4 4-4 4-1 0-4 2-7 4-3 2-9 6-14 8-6 4-21 14-28 21-2 2-8 7-12 10-1 1-4 2-6 3-12 6-22 2-39-17-11-12-22-23-31-31-4-4-8-7-9-8-8-8-18-13-24-13-3-1-7-1-8-1-6-1-26-2-36-2-26 0-42 4-57 14-6 4-17 13-17 15 0 0-1 1-2 3-2 1-4 5-6 8-9 14-12 17-33 34-1 1-4 3-5 3-3 1-10 2-14 1z" horiz-adv-x="1000" />

<glyph glyph-name="girl" unicode="&#xe830;" d="M500 800c0-1-4-1-8-1-9-1-12-2-20-3-7-1-9-2-15-2-3-1-6-1-7-1-1-1-3-1-6-1-2-1-6-1-8-1-2-1-5-1-7-1-4-1-8-2-16-3-23-5-39-11-54-20-9-5-27-21-53-47-20-20-24-24-28-30-2-3-4-5-5-6-1-1-9-13-18-26 0-2-3-7-6-12-2-5-5-10-5-11-3-5-9-27-11-35 0-1 0-3 0-4-1-2-14-1-23 3-2 1-11 5-22 10-11 6-20 10-21 10 0 0-2-2-4-4-3-5-11-9-17-10-2-1-12-1-23-1-27-1-26 0-45-20-21-21-25-30-22-50 1-6 2-21 2-45 0-42-1-38 11-50 8-8 8-8 9-6 1 2 4 6 6 10 3 5 8 10 17 19 22 21 36 36 42 44 13 15 23 19 49 18 14-1 16-1 20-3 2-2 4-3 5-4 0-1-1-3-3-5-2-3-4-5-4-5 0-1-7-9-13-15-19-17-24-23-27-35-1-4-1-30 0-36 2-12 4-16 6-22 1-2 2-4 3-7 6-16 25-37 44-46 1-1 3-3 3-3 1-1 2-2 3-2 0 0 3-1 4-2 2 0 4-1 5-1 4-1 15-5 22-8 18-9 25-13 28-15 1-1 2-2 2-2 1 0 2-1 2-2 1-3 9-17 12-23 5-9 12-17 22-27 11-10 18-16 32-24 6-3 7-4 12-6 2 0 5-2 8-3 2-1 4-2 5-2 1 0 2 0 2-1 1 0 3-1 6-2 2-1 5-1 7-2 4-2 28-8 34-8 3-1 5-1 5-1 1-1 20-4 28-6 2 0 4 0 6 0 15-3 26-4 42-4 17 0 24 0 37 3 9 1 28 7 30 8 0 0 2 1 4 1 1 1 8 4 15 7 25 13 46 28 65 49 18 20 27 28 36 36 5 4 10 8 10 8 0 0 2 1 3 2 1 1 6 4 11 7 13 7 21 11 38 17 10 4 24 10 25 12 0 0 2 1 4 2 5 4 17 16 21 23 8 10 15 26 17 38 0 2 0 5 1 7 1 6 1 32 0 36-2 9-7 16-16 25-16 15-22 21-25 26-2 3-5 6-5 6-2 0-1 3 2 4 1 1 2 2 2 2 0 2 9 3 26 3 25-1 27-1 40-15 5-5 20-21 34-35 22-22 26-26 29-33 2-3 5-7 5-8 1-1 3 1 10 7 4 5 8 10 9 11 1 2 2 10 2 39 0 25 0 39 1 45 2 13 0 22-7 33-5 8-27 30-32 32-7 4-10 4-31 5-24 0-28 1-37 10l-5 5-17-8c-29-15-34-17-43-17-8 1-11 2-15 9-3 3-5 10-10 32-3 15-12 36-20 47-1 3-3 6-4 7-3 6-14 19-24 30-13 12-14 13-23 20-4 3-7 5-7 5 0 1-19 13-27 18-26 17-66 31-96 35-2 0-6 0-8 1-5 0-37 1-38 1z m49-153c3-8 6-14 8-17 2-1 5-5 8-9 2-4 6-8 8-11 10-12 14-17 16-20 3-4 20-25 22-27 1-2 5-6 8-10 14-17 33-38 37-41 2-1 4-3 4-4 1 0 3-2 6-5 3-2 6-4 6-4 2-3 19-12 32-17 4-2 16-5 22-5 1-1 4-1 7-1 3-1 9-1 14-1 10-1 15-3 21-7 10-8 13-18 14-40 0-14 0-16-3-23-5-15-14-20-32-15-9 2-26 10-30 13 0 0-3 1-6 2-10 2-12-1-12-18 1-15 0-17-29-47-10-10-21-22-24-25-8-11-21-23-29-29-11-8-15-11-22-14-4-3-8-5-9-5-1-1-5-2-10-4-15-6-37-11-53-13-15-1-63 0-77 2-16 2-43 14-53 23-2 2-5 5-8 7-14 13-37 35-52 51-4 5-20 25-24 32-2 3-5 8-6 9-2 4-4 7-7 13-5 10-11 19-15 22-4 3-5 3-9 3-6-1-12-5-23-18-5-5-6-6-9-6-9 0-16 6-19 17-3 7-3 9-2 22 0 15 1 22 5 29 2 5 13 15 17 16 3 1 5 2 5 2 1 1 5-1 12-4 6-3 13-6 14-6 1 0 6 2 11 5 5 2 9 4 9 4 0 0 7 2 17 6 5 2 11 4 13 5 3 0 6 2 8 3 2 0 5 2 7 2 6 3 21 11 26 15 2 1 4 3 6 4 2 1 10 9 18 17 13 13 22 20 37 32 4 3 8 6 9 6 1 1 4 3 5 4 2 1 8 5 13 9 10 7 13 9 17 8 3 0 6-6 6-11 0-4-2-12-4-16-1-1-2-4-2-5-1-2-2-5-3-8-2-3-3-6-3-7 0 0-1-3-2-5-2-6-2-9 0-15 2-4 2-4 6-4 2 1 4 1 6 2 4 2 23 23 33 36 0 0 1 1 1 2 1 2 3 5 4 6 3 3 9 20 11 28 1 7 1 8 1 24 0 14 0 15 3 20 2 4 5 8 10 12 3 3 7 7 8 8 2 1 3 2 3 2 1 0 2-3 3-6z m-168-189c-4-2-9-4-15-7l-5-4 5-5c10-11 27-29 29-29 0 0 2 1 4 3 1 1 4 4 6 5l4 3 0 12c-1 15-2 19-8 21-4 2-16 2-20 1z m208-1c-3-1-6-2-6-3 0 0-3-2-5-3-3-1-5-3-5-4-1-1 8-11 23-27l8-8 3 2c2 1 5 4 8 6l4 5 0 11c0 15-2 20-9 22-6 1-16 1-21-1z m-234-289c-3-1-8-4-11-7-1-1-6-3-10-6-14-7-21-11-22-12 0 0-1-1-2-2-3-1-15-12-25-22-12-12-14-15-26-29-1-1-2-3-3-3-2-3-9-13-12-18-2-3-4-6-4-6-1 0-3-4-7-11-1-3-3-6-5-8-1-3-4-10-7-16-3-6-7-13-7-14-2-4-14-32-18-43-3-8-6-16-7-23 0 0-1-3-2-6-3-8-4-21-3-26 1-7 3-9 12-9 16-1 27-1 36-2 5 0 13 0 18-1 5 0 15 0 23-1 7 0 15-1 17-1 1 0 16 0 33-1 39-1 150-1 216 0 27 1 51 1 52 1 1 0 18 1 37 1 19 1 46 1 59 1 23 1 64 2 81 2 3 0 10 1 15 1 10 0 12 2 13 9 1 5 0 18-3 26-1 3-1 6-2 6-1 7-4 15-7 23-4 11-16 39-18 43 0 1-4 9-7 16-10 20-22 42-26 48-1 2-2 3-2 3 0 1-3 6-6 11-4 6-7 12-9 14-2 4-5 6-20 18-6 4-11 8-11 8 0 0-4 3-8 7-4 3-8 6-8 6 0 0-5 5-10 10-15 13-20 15-29 13-5-2-7-3-12-8-14-15-37-38-41-41-3-3-6-5-6-5-2-1-2-2-8-6-2-1-4-2-4-3-1 0-5-2-10-5-16-8-34-12-52-12-6 0-12 0-13 0-1 1-3 1-5 1-6 1-8 2-15 4-9 3-27 12-32 16-2 2-4 3-4 3-1 0-2 1-2 1-1 1-4 4-7 6-3 3-15 14-27 26-13 13-22 22-24 23-4 1-9 1-13 0z" horiz-adv-x="1000" />

<glyph glyph-name="man" unicode="&#xe831;" d="M448 799c-2 0-4-1-5-2-2-1-4-7-5-19-2-18-4-20-14-12-7 5-11 6-17 5-5 0-5 0-8-6-5-12-11-17-31-25-13-6-17-8-32-20-21-17-39-36-49-52-13-21-18-37-24-91-5-33-6-43-9-50-2-5-18-35-25-46-7-11-11-19-12-24 0-5 3-20 10-44 7-27 18-42 46-67 21-18 40-37 48-48 7-9 11-17 15-30 5-13 9-19 20-30 10-10 18-15 43-30 28-16 37-19 68-26 8-2 21-4 28-6 17-4 23-4 39-3 40 4 74 20 107 51 12 11 25 26 45 54 36 49 48 63 70 86 24 26 27 34 29 86 0 19 0 24-1 29-3 13-11 24-21 33-10 7-13 10-16 15-2 6-4 15-4 27 0 4-1 12-2 19-13 73-50 128-110 160-13 7-33 15-71 29-42 15-56 20-74 29-18 9-26 10-38 8z m99-166c31-5 57-14 76-27 15-10 19-17 24-42 2-10 6-25 8-33 6-28 8-44 6-61-1-13 0-20 5-25 3-3 3-3 8-3 5 0 6 0 8 2 1 2 3 7 5 11 4 13 12 23 21 27 9 5 18 4 27-3 10-8 15-18 15-29 0-8 0-9-10-34-10-24-14-29-31-39-22-13-31-21-34-29-2-3-4-10-5-16-4-12-5-15-15-30-16-27-28-40-48-55-21-15-37-24-54-28-12-3-29-3-39-1-7 2-9 2-19 1-43-5-88 18-123 63-9 12-20 30-29 48-5 10-11 20-12 22-2 3-6 6-15 10-15 7-22 13-30 23-7 9-9 14-22 40-7 16-8 18-8 24 0 7 2 13 7 20 6 9 15 14 32 15 7 0 8 0 11-2 5-3 7-8 8-14 0-3 0-6 1-8 0-2 6-6 16-12l6-3 6 9c4 5 8 10 9 12 3 9 4 41 1 80 0 12 1 20 6 30 4 7 18 21 28 27 25 17 61 28 102 31 9 1 48 0 58-1z m-215-431c-1 0-12-7-23-14-10-8-34-23-52-34-51-33-79-53-103-72-11-9-31-29-31-30 0-1-2-4-5-7-14-19-30-48-36-66-3-10-4-21-4-48 0-21 0-24 1-24 1 0 7-1 13-2 23-3 40-4 57-4 19 0 24 1 49 6 10 2 24 5 31 5 16 3 24 2 55-6 18-4 24-5 32-5 8-1 9 0 13 3 7 5 17 9 26 10 5 2 14 2 33 2 28 0 35 0 43 4 3 2 5 4 6 6 4 8 2 13-10 38-10 21-15 33-32 89-22 66-44 133-49 142-3 6-9 9-14 7z m344-15c-3-3-7-9-19-29-15-28-27-57-36-90-15-56-16-60-38-104-9-18-17-35-18-39-5-11-3-19 5-22 3-1 6-1 17-1 18 1 41 4 60 8 35 7 34 7 65 7 15 0 49 0 76-1 57-1 80 0 112 4l23 2-1 24c0 29-1 38-5 50-11 35-39 75-68 98-15 12-49 34-80 51-25 14-69 37-75 41-9 4-14 4-18 1z m-264-27c-1-2-2-8-2-21-1-26-1-31 1-40 3-13 12-36 17-40 2-2 2-2 6 0 3 2 8 5 13 7 29 17 61 21 92 12 10-2 24-9 35-16 4-2 8-4 9-4 2 0 4 3 8 9 11 18 13 28 13 62 0 14 0 26-1 28-1 5-3 5-9 2-2-1-11-4-20-7-38-14-67-19-90-16-20 2-37 8-53 17-10 6-15 9-17 9 0 0-2-1-2-2z" horiz-adv-x="1000" />
</font>
</defs>
</svg>
